<svg width="1818" height="1609" viewBox="0 0 1818 1609" fill="none" xmlns="http://www.w3.org/2000/svg">
<path d="M1405.6 1077.3C1404.58 1075.65 1403.56 1074.01 1401.71 1071.51C1393.01 1061.25 1382.08 1057.34 1370.82 1054.27C1341.77 1046.35 1312.03 1045.42 1282.17 1046.23C1279.93 1046.3 1277.72 1047.33 1274.58 1047.85C1260.84 1049.2 1248.02 1050.62 1234.36 1052.06C1221.79 1054.04 1210.01 1055.81 1198.32 1058C1145.88 1067.81 1095.61 1084.34 1047.25 1106.83C1042.24 1109.17 1036.65 1110.25 1031.34 1111.92C1031.35 1111.94 1031.37 1111.95 1031.38 1111.23C1033.33 1106.66 1035.12 1102.73 1037.24 1098.98C1043.29 1088.27 1049.77 1077.78 1055.46 1066.89C1058.19 1061.68 1059.52 1055.75 1062.1 1049.83C1064.74 1046.51 1067.21 1043.72 1068.7 1040.48C1079.55 1016.9 1087.74 992.363 1094.66 967.384C1102.14 940.371 1106 912.679 1106.7 884.817C1107.41 856.531 1102.24 828.652 1096.11 801.038C1085.57 753.595 1067.29 709.306 1043.07 667.26C1047.51 666.615 1051.15 666.27 1054.8 666.267C1113.05 666.228 1171.31 666.275 1229.57 666.215C1280.83 666.163 1332.1 666.002 1383.8 666.503C1385.34 670.59 1386.67 674.009 1387.5 677.545C1400.52 733.165 1413.41 788.829 1419.94 845.687C1422.78 870.414 1425.48 895.195 1426.97 920.028C1428.19 940.271 1427.75 960.629 1427.57 980.931C1427.46 992.879 1426.31 1004.81 1425.87 1016.76C1425.61 1023.6 1425.82 1030.45 1425.82 1038.5C1436.99 1037.49 1447.17 1036.57 1457.4 1035.94C1457.44 1036.23 1457.5 1036.81 1457.5 1037.52C1451.17 1054.26 1442.16 1068.76 1431.87 1082.52C1430.13 1084.84 1428.7 1087.4 1427.13 1089.85C1425.35 1091.45 1423.56 1093.04 1420.73 1095.27C1415.78 1096.66 1414.11 1095.14 1413.01 1091.16C1411.61 1086.13 1411.55 1080.03 1405.6 1077.3Z" fill="#FDD984"/>
<rect x="68.1755" y="1172.54" width="132.547" height="326.008" transform="rotate(-35.8238 68.1755 1172.54)" fill="#DF6A4D"/>
<rect x="72.2419" y="1100.94" width="132.547" height="59.9894" transform="rotate(5.63565 72.2419 1100.94)" fill="#DF6A4D"/>
<rect x="1368.24" y="1194.94" width="132.547" height="59.9894" transform="rotate(5.63565 1368.24 1194.94)" fill="#DF6A4D"/>
<path d="M1561.25 1181.82C1571.87 1189.06 1577.89 1198.82 1577.97 1211.94C1578.05 1224.03 1573.83 1230.07 1562.2 1234.29C1561.3 1234.62 1560.51 1235.25 1559.18 1236.02C1559.62 1238.53 1560.51 1241.11 1560.45 1243.65C1560.31 1249.57 1560.59 1255.71 1559.08 1261.32C1556.69 1270.15 1550.33 1274.62 1541.15 1274.05C1535.29 1273.7 1531.17 1275.61 1526.7 1278.97C1499.98 1299.05 1483.21 1326.48 1469.76 1356.18C1462.22 1372.85 1455.89 1390.08 1449.22 1407.13C1432.15 1450.82 1408.3 1490.22 1374.67 1523.16C1330.05 1566.86 1276.83 1594.21 1215.05 1604C1198.68 1606.59 1181.94 1608.02 1165.36 1608.03C901.377 1608.26 637.389 1608.01 373.402 1608.33C329.299 1608.39 293.364 1591.21 262.397 1561.36C236.098 1536.01 220.706 1504.78 213.41 1469.31C211.198 1458.55 209.668 1447.65 207.343 1436.92C202.981 1416.79 194.633 1398.32 182.373 1381.8C170.265 1365.49 153.336 1355.63 134.836 1347.29C138.412 1346.27 142.043 1345.76 145.664 1345.83C186.18 1346.58 226.695 1347.43 267.333 1348.92C272.006 1356.9 276.612 1364.16 281.094 1371.5C298.571 1400.12 320.866 1424.61 346.577 1445.84C370.435 1465.54 396.676 1481.89 424.107 1496.18C456.032 1512.81 489.446 1525.89 524.229 1535.11C543.408 1540.19 562.922 1544.07 582.377 1548.03C596.613 1550.93 610.955 1553.39 625.331 1555.5C638.086 1557.37 650.933 1558.7 663.776 1559.87C674.991 1560.88 686.257 1561.33 697.501 1562.04C717.994 1563.33 738.479 1565.61 758.98 1565.75C823.207 1566.2 887.447 1566.66 951.648 1563.92C953.311 1563.85 954.976 1563.81 956.633 1563.68C971.8 1562.44 986.962 1561.15 1002.13 1559.94C1012.37 1559.13 1022.65 1558.74 1032.84 1557.58C1046.62 1556.01 1060.35 1553.97 1074.08 1551.96C1090.1 1549.62 1106.13 1547.35 1122.08 1544.6C1147.9 1540.15 1173.17 1533.48 1198.38 1526.29C1225.39 1518.6 1250.93 1507.43 1275.97 1495.26C1297.1 1484.99 1317.35 1472.86 1336.24 1458.63C1350.82 1447.65 1365.43 1436.83 1378.54 1423.99C1397.35 1405.56 1415.22 1386.35 1429.58 1364.28C1439.14 1349.58 1448.71 1334.57 1451.5 1316.65C1453.63 1302.94 1455.48 1289.19 1457.47 1275.46C1460.04 1257.73 1461.66 1239.93 1462 1221.97C1464.22 1221.23 1465.75 1220.51 1467.79 1219.28C1478.37 1214.63 1488.4 1210.37 1498.53 1206.37C1519.41 1198.11 1540.34 1190 1561.25 1181.82Z" fill="#DF6A4D"/>
<path d="M591.058 958.535C595.855 932.781 600.762 907.047 605.424 881.269C613.116 838.743 612.366 795.762 611.098 752.878C610.461 731.365 608.044 709.796 604.804 688.5C601.315 665.566 596.71 642.728 591.19 620.191C580.643 577.129 565.283 535.638 547.872 494.897C546.71 492.179 546.032 489.254 546.073 485.429C595.107 484.399 643.197 484.36 691.287 484.354C692.596 484.353 693.905 484.701 695.268 485.553C695.446 486.872 695.405 487.621 695.72 488.163C710.745 514.101 722.528 541.601 733.236 569.468C741.539 591.077 748.581 613.258 754.711 635.589C760.041 655.007 763.668 674.924 767.351 694.749C769.518 706.419 770.415 718.331 771.724 730.151C773.032 741.967 775.166 753.808 775.121 765.631C775.029 789.186 776.927 812.776 773.507 836.32C770.706 855.602 770.069 875.232 766.658 894.385C760.966 926.346 752.131 957.594 741.49 988.289C735.516 1005.52 729.358 1022.69 722.632 1040.25C718.174 1041.76 714.407 1043.07 710.552 1044.03C655.245 1057.75 601.752 1076.68 549.644 1099.66C546.864 1100.88 543.731 1101.31 539.387 1102.47C540.386 1099.11 540.695 1097.53 541.31 1096.09C547.291 1082.02 553.482 1068.03 559.304 1053.9C569.559 1029 578.99 1003.81 585.498 976.885C587.541 970.334 589.3 964.435 591.058 958.535Z" fill="#FDD984"/>
<path d="M1412.4 645.568C1413.04 645.812 1413.69 646.056 1414.93 647.208C1420.81 654.131 1426.09 660.147 1431.44 666.837C1438.86 677.533 1446.21 687.555 1453.69 698.089C1454.35 699.028 1454.89 699.453 1455.39 699.906C1455.35 699.935 1455.41 699.862 1455.58 700.323C1456.11 701.364 1456.62 701.767 1457.3 701.996C1457.35 702 1457.27 702.039 1457.29 702.765C1458.24 705.533 1458.79 707.873 1460.15 709.573C1476.57 730.125 1493.03 750.645 1509.71 770.987C1511.86 773.599 1515.29 775.155 1518.12 777.2C1518.12 777.2 1517.96 777.656 1517.86 778.168C1518.4 783.069 1520.98 785.427 1525.32 785.973C1525.32 785.973 1525.35 785.938 1525.32 786.682C1525.61 788.69 1525.56 790.245 1526.3 791.175C1537.71 805.557 1549.14 819.921 1560.8 834.097C1562.31 835.934 1565.13 836.701 1567.34 837.963C1567.34 837.963 1567.35 837.938 1567.32 838.672C1567.83 844.299 1570.35 847.309 1575.39 847.93C1575.39 847.93 1575.35 847.936 1575.33 848.651C1579.13 854.996 1582.63 860.879 1586.82 866.208C1599.85 882.748 1613.03 899.166 1626.43 915.41C1629.02 918.552 1632.82 920.69 1636.07 923.292C1636.07 923.292 1636.02 923.896 1635.88 924.307C1636.72 929.335 1639.35 932.331 1644.12 933.21C1644.12 933.21 1643.95 933.704 1643.86 934.19C1644.85 939.201 1647.26 942.403 1652.14 943.166C1652.14 943.166 1652.01 943.531 1651.9 944.098C1652.44 949.072 1654.96 951.498 1659.4 951.915C1659.4 951.915 1659.35 951.935 1659.33 952.645C1662.23 958.071 1664.72 963.125 1668.14 967.442C1679.45 981.732 1690.99 995.849 1702.73 1009.8C1704.93 1012.41 1708.43 1013.94 1711.33 1015.97C1711.33 1015.97 1711.35 1015.94 1711.32 1016.68C1715.07 1025.57 1719.17 1033.45 1728.12 1037.2C1728.12 1037.2 1727.94 1037.69 1727.86 1038.2C1731.07 1043.59 1734.52 1048.38 1737.56 1053.41C1738.51 1054.99 1738.36 1057.23 1738.96 1060.54C1730.32 1058.26 1723.29 1056.54 1716.34 1054.55C1693.38 1047.98 1670.22 1042.43 1646.41 1039.92C1634.24 1038.64 1622.1 1037.02 1609.93 1035.71C1597.43 1034.38 1584.93 1032.38 1572.41 1032.17C1541.43 1031.67 1510.43 1032.03 1478.56 1032C1472.21 1032.58 1466.75 1033.19 1460.64 1033.84C1459.12 1033.9 1458.26 1033.92 1456.45 1033.93C1447.03 1033.55 1438.42 1034.77 1428.58 1032.93C1429.55 1021.8 1431.25 1011.62 1431.17 1001.46C1430.86 963.881 1429.96 926.309 1429.27 888.734C1429.26 888.07 1429.19 887.404 1429.1 886.746C1425.88 863.841 1422.99 840.882 1419.33 818.046C1415.35 793.24 1410.83 768.518 1406.22 743.821C1403.55 729.524 1400.52 715.277 1397.1 701.142C1394.45 690.194 1391.06 679.414 1387.69 668.657C1387.11 666.809 1384.98 665.447 1383.5 663.07C1382.1 656.89 1380.76 651.5 1379.43 646.111C1376.66 636.589 1373.9 627.067 1371.73 616.302C1372.32 610.984 1372.32 606.908 1372.32 602.323C1375.48 603.565 1377.76 604.459 1380.04 605.354C1380.04 605.354 1379.82 605.886 1379.9 606.182C1380.62 606.813 1381.25 607.147 1381.89 607.481C1381.89 607.481 1381.57 607.815 1381.75 608.178C1382.54 608.903 1383.16 609.266 1383.78 609.629C1383.78 609.629 1383.45 609.693 1383.52 610.332C1389.74 619.814 1395.7 628.791 1402.15 637.403C1403.74 639.526 1406.92 640.46 1409.37 641.941C1409.37 641.941 1409.35 641.937 1409.4 642.605C1410.43 644.037 1411.41 644.802 1412.4 645.568Z" fill="#DB5350"/>
<path d="M328.942 1084C336.274 1083.94 343.606 1083.88 352.728 1083.96C366.783 1084.59 378.928 1085.48 389.171 1093.5C389.859 1094.04 391.061 1093.92 392.468 1094.55C399.61 1103.04 403.601 1112.44 407.183 1122.18C410.966 1132.47 415.075 1142.69 419.865 1152.54C428.775 1170.86 443.339 1182.73 462.98 1188.41C478.811 1192.98 495.051 1193.36 511.344 1193.85C531.926 1194.46 546.509 1204.64 555.283 1223.09C557.701 1228.18 559.445 1233.59 561.352 1238.91C568.198 1258 574.825 1277.17 581.84 1296.2C587.489 1311.51 593.938 1315.81 610.292 1316C658.204 1316.58 706.115 1317.15 754.027 1317.7C760.35 1317.78 766.675 1317.77 773.964 1317.8C793.735 1317.74 812.543 1317.77 831.347 1317.55C834.828 1317.51 838.296 1316.44 842.678 1315.92C874.797 1315.43 906.01 1314.97 937.216 1314.25C957.46 1313.78 977.705 1313.13 997.931 1312.18C1027.93 1310.78 1052.4 1298.14 1070.1 1273.95C1075.86 1266.08 1079.39 1256.45 1083.15 1247.3C1089.24 1232.51 1098.35 1221.71 1115.21 1219.54C1116.82 1219.34 1118.36 1218.52 1120.77 1217.95C1124.55 1217.9 1127.52 1217.55 1130.38 1217.96C1135.36 1218.68 1137.37 1215.87 1139.05 1212.57C1141.32 1213.96 1143.29 1215.29 1145.2 1215.21C1149.38 1215.06 1153.56 1214.33 1157.7 1213.57C1163.68 1212.48 1169.62 1211.15 1176.44 1209.93C1183.23 1209.28 1189.15 1208.63 1195.99 1208.01C1208.35 1206.67 1219.81 1205.3 1232.03 1203.59C1238.5 1202.64 1244.21 1202.02 1250.68 1201.36C1260.08 1200.12 1268.73 1198.93 1278.08 1197.64C1281.53 1196.99 1284.28 1196.44 1287.89 1195.91C1294.87 1195.29 1300.98 1194.63 1307.97 1193.92C1320.02 1192.45 1331.2 1191.05 1343.24 1189.64C1350.67 1188.37 1357.24 1187.09 1364.57 1185.61C1368.84 1184.88 1372.36 1184.36 1375.87 1183.81C1383.83 1182.54 1391.8 1181.25 1400.61 1179.94C1407 1179.19 1412.55 1178.47 1418.87 1177.73C1421.9 1177.38 1424.14 1176.91 1426.41 1176.74C1438 1175.82 1449.53 1171.1 1461.53 1176.68C1471.42 1189.46 1471.44 1193.68 1462 1205.09C1461.37 1205.86 1460.85 1206.72 1459.53 1207.66C1444.71 1209.82 1430.65 1211.93 1416.56 1213.87C1403.46 1215.66 1390.32 1217.2 1377.21 1218.98C1365.74 1220.54 1354.31 1222.36 1342.84 1223.9C1325.14 1226.28 1307.41 1228.44 1289.71 1230.83C1272.99 1233.09 1256.32 1235.65 1239.6 1237.85C1222.21 1240.13 1204.78 1242.05 1187.39 1244.31C1168.37 1246.77 1149.4 1249.56 1130.37 1251.93C1124.55 1252.66 1120.4 1254.96 1117.97 1260.43C1115.8 1265.3 1113.23 1269.98 1110.97 1274.8C1104.26 1289.11 1095.33 1301.71 1083.77 1312.63C1060.79 1334.34 1033.03 1344.8 1002.15 1347.77C988.63 1349.07 974.999 1349.39 961.407 1349.81C935.498 1350.62 909.583 1351.7 883.668 1351.77C794.042 1352.02 704.415 1351.91 614.789 1351.8C607.869 1351.79 600.958 1350.56 594.03 1350.1C573.786 1348.75 560.599 1337.28 553.424 1319.47C544.501 1297.33 537.147 1274.55 529.039 1252.08C527.351 1247.4 525.515 1242.75 523.411 1238.25C521.127 1233.36 516.923 1230.61 511.67 1230.01C503.777 1229.11 495.82 1228.79 487.922 1227.92C477.081 1226.74 466.078 1226.14 455.485 1223.76C429.715 1217.99 408.686 1204.3 395.334 1181.31C386.366 1165.86 379.378 1149.22 372.058 1132.87C366.98 1121.52 365.655 1120.31 352.83 1119.93C324.588 1119.09 296.368 1120.04 268.069 1118.42C226.925 1116.05 185.613 1116.6 144.373 1115.9C143.374 1115.89 142.374 1115.9 140.519 1115.86C134.756 1115.22 129.851 1114.14 124.938 1114.11C98.7337 1113.93 72.5273 1114.01 46.3215 1113.99C42.7419 1113.42 39.0769 1113.17 35.5997 1112.22C27.4855 1110.01 22.0046 1103.41 21.7921 1096.12C21.5686 1088.46 27.0898 1080.44 34.7857 1077.95C38.2039 1076.85 41.8967 1076.59 46.8514 1076.43C54.1805 1077.19 60.1229 1077.48 66.9403 1077.72C78.2807 1077.77 88.7462 1077.85 100.128 1077.93C106.548 1077.93 112.052 1077.94 118.305 1078.26C129.649 1078.99 140.243 1079.4 151.787 1079.85C159.062 1079.88 165.386 1079.87 172.615 1079.85C183.976 1079.71 194.431 1079.58 205.479 1080.07C211.935 1081.09 217.798 1081.48 224.567 1081.83C235.658 1081.71 245.843 1081.63 256.938 1081.68C261.443 1082.34 265.032 1083.25 268.632 1083.29C271.004 1083.32 273.392 1082.11 276.602 1081.61C287.984 1082.47 298.538 1083.18 310.01 1083.87C316.933 1083.9 322.938 1083.95 328.942 1084Z" fill="#F7A482"/>
<path d="M33.5188 871.345C36.6303 866.727 39.2536 861.672 42.9339 857.564C63.8644 834.201 81.7563 808.72 96.7272 781.199C116.38 745.071 130.392 706.676 139.723 666.767C145.592 641.667 149.298 616.037 153.366 590.548C157.025 567.626 159.345 544.545 159.617 521.271C159.915 495.702 160.807 470.139 161.121 444.569C161.207 437.646 160.14 430.708 160.272 423.14C178.09 440.94 195.251 459.363 212.383 477.815C229.506 496.258 246.6 514.729 263.615 534.092C264.794 549.493 266.688 563.968 267.198 578.491C268.119 604.72 266.675 630.903 263.384 656.959C261.189 674.341 259.461 691.808 256.513 709.064C252.593 732.006 246.217 754.458 237.347 775.927C229.769 794.27 221.046 812.274 211.246 829.528C201.257 847.115 188.934 863.263 174.681 877.852C170.856 881.767 168.374 886.995 164.611 891.694C163.06 891.674 162.174 891.582 160.897 891.093C159.78 890.583 159.053 890.468 157.509 890.468C150.758 889.785 144.806 889.108 138.894 888.169C103.764 882.595 68.6429 876.96 33.5188 871.345Z" fill="#FDD984"/>
<path d="M1042.28 667.72C1067.29 709.306 1085.57 753.595 1096.11 801.038C1102.24 828.652 1107.41 856.531 1106.7 884.817C1106 912.679 1102.14 940.371 1094.66 967.384C1087.74 992.363 1079.55 1016.9 1068.7 1040.48C1067.21 1043.72 1064.74 1046.51 1061.47 1049.46C1052.35 1046.06 1044.62 1042.32 1036.58 1039.42C998.678 1025.69 959.51 1018.54 918.772 1017.14C916.034 1016.96 913.737 1017.2 910.511 1017.45C901.57 1017.45 893.56 1017.43 885.536 1016.67C886.249 1013.06 886.6 1010.02 887.755 1007.33C900.75 977.027 909.501 945.434 916.554 913.321C924.107 878.935 927.996 844.088 929.096 808.941C929.844 785.011 928.037 761.178 925.664 737.361C923.23 712.933 919.475 688.743 913.938 664.847C902.948 617.423 886.415 571.901 866.264 527.653C859.935 513.757 853.466 499.925 847.905 485.919C852.989 485.184 857.228 484.085 861.469 484.079C932.95 483.972 1004.43 483.973 1075.91 484.074C1079.81 484.079 1083.71 485.172 1087.6 485.758C1104.29 516.408 1118.36 548.223 1128.78 581.524C1135.21 602.048 1140.52 622.921 1145.38 644.651C1141.77 645.772 1139.11 645.971 1136.45 645.973C1100.51 645.992 1064.58 645.981 1028.64 645.989C1025.98 645.99 1023.27 645.776 1020.67 646.203C1015.21 647.101 1011.11 652.286 1011.4 657.46C1011.71 662.849 1014.9 665.497 1021.54 666.004C1028.46 666.533 1035.37 667.145 1042.28 667.72ZM914.03 942.659C913.136 944.655 911.96 946.575 911.397 948.661C908.714 958.59 909.172 969.429 902.629 978.271C902.13 978.945 903.076 980.689 903.355 983.604C904.086 988.832 904.645 994.092 905.599 999.279C906.504 1004.2 909.283 1007.97 914.301 1009.19C921.624 1010.98 928.983 1012.99 936.444 1013.76C948.279 1014.98 960.213 1015.25 972.103 1015.95C974.082 1016.06 976.123 1016.05 978.018 1016.54C991.417 1020.05 1004.63 1024.56 1018.22 1026.94C1027.33 1028.54 1035.38 1037.72 1046.17 1030.94C1048.23 1029.64 1053.35 1033.11 1057.01 1034.5C1059.34 1035.39 1061.59 1036.5 1063.75 1037.46C1065.46 1033.74 1066.92 1030.83 1068.16 1027.83C1072.19 1018.07 1076.48 1008.39 1080.02 998.458C1084.02 987.25 1087.41 975.82 1090.86 964.427C1091.91 960.981 1092.43 957.354 1092.95 953.775C1093.64 949.003 1093.8 944.137 1094.72 939.416C1096.75 929.089 1099.43 918.882 1101.14 908.509C1101.69 905.172 1100.01 901.47 1099.35 896.241C1099.94 891.68 1101.1 887.107 1101 882.561C1100.74 870.346 1099.94 858.143 1099.35 844.369C1098.68 840.891 1098.02 837.413 1097.35 832.239C1097.19 829.29 1097.61 826.162 1096.77 823.423C1092.18 808.536 1085.9 794.126 1084.95 778.252C1084.86 776.747 1082.6 775.371 1081.32 772.294C1078.51 764.374 1080.74 755.221 1074.74 746.69C1072.29 742.454 1068.97 738.486 1067.57 733.928C1064.26 723.186 1061.04 712.545 1053.2 702.537C1049.25 697.669 1045.3 692.802 1041.19 686.494C1035.22 679.219 1029.15 677.3 1026.05 682.821C1021.55 690.82 1015.54 694.66 1006.9 695.634C1005.69 695.77 1004.65 697.285 1003.44 697.449C1001.92 697.656 1000.22 697.341 998.751 696.812C998.175 696.604 998.028 695.208 997.442 693.746C999.931 692.627 1002.21 691.605 1004.78 690.45C1004.98 688.876 1004.82 687.083 1005.48 685.679C1008.89 678.423 1008.86 671.51 1005.93 663.855C1004.11 659.121 1005.24 654 1008.83 648.982C1014.53 641.021 1021.89 638.073 1030.9 637.987C1048.89 637.816 1066.87 637.824 1084.86 637.976C1095.83 638.07 1106.68 638.058 1115.44 630.253C1116.38 631.218 1116.94 631.623 1117.28 632.167C1123.33 641.835 1127.36 641.877 1133.18 632.137C1134.79 629.433 1135.92 626.438 1137.28 623.577C1136.76 622.977 1136.24 622.377 1135.72 621.777C1132.82 622.86 1129.9 623.882 1127.04 625.044C1124.17 626.208 1121.59 625.881 1120.2 623.03C1116.6 615.66 1109.52 609.032 1116.27 599.56C1119.02 595.697 1115.91 591.731 1112.89 589.132C1109.95 586.6 1107.39 589.046 1105.11 591.124C1104.14 592.004 1103.01 592.704 1101.87 593.551C1100.49 593.153 1099.25 592.693 1097.97 592.44C1093.05 591.466 1088.84 591.41 1086.95 597.661C1086.31 599.767 1083.54 601.487 1081.39 602.812C1078.52 604.581 1075.32 605.812 1073.8 609.96C1070.7 611.06 1067.62 612.212 1064.49 613.252C1057.88 615.455 1051.33 618.228 1044.66 612.984C1043.31 611.919 1040.86 612.225 1038.9 611.947C1036.62 611.621 1033.33 612.209 1032.22 610.911C1026.04 603.635 1017.31 607.198 1009.16 603.982C1008.43 607.247 1007.36 609.695 1007.46 612.094C1007.67 617.175 1004.96 621.297 1001.13 622.533C993.441 625.015 990.404 634.564 981.303 634.705C980.266 634.721 977.987 639.329 978.564 641.035C979.766 644.585 982.944 644.354 985.883 642.262C987.811 640.891 989.839 639.66 993.317 637.391C993.317 643.347 993.565 647.306 993.26 651.223C992.788 657.268 990.269 658.637 984.808 656.283C982.505 655.291 980.149 654.421 978.816 653.892C974.966 657.783 972.566 661.84 969.053 663.417C961.88 666.635 954.106 668.519 946.573 670.955C941.303 680.759 940.695 692.769 932.132 700.971C931.534 701.545 931.531 702.84 931.429 703.818C930.713 710.714 929.619 717.606 929.46 724.518C929.233 734.384 927.902 744.486 933.924 753.555C934.931 755.071 934.343 757.895 933.971 760.023C933.307 763.823 931.612 767.527 931.453 771.318C930.336 797.834 933.262 824.435 929.416 850.914C926.809 868.856 926.615 887.107 922.13 904.832C920.044 913.075 918.914 921.56 916.219 930.981C915.93 934.633 915.64 938.284 914.03 942.659Z" fill="#D95450"/>
<path d="M551.542 876.504C549.456 898.552 540.37 917.671 527.012 934.984C524.391 938.382 521.619 941.664 517.605 945.503C510.046 945.314 503.773 944.799 497.555 943.896C480.852 941.471 464.17 938.897 447.485 936.348C433.409 934.197 419.355 931.891 405.263 929.848C389.864 927.616 374.405 925.785 359.022 923.45C343.64 921.116 328.292 918.534 312.991 915.72C308.284 914.854 303.783 912.868 299.316 910.764C300.904 908.336 302.218 906.393 303.843 904.762C332.589 875.916 352.482 841.666 365.738 803.382C379.544 763.51 383.785 722.422 381.096 680.481C380.651 673.543 380.112 666.611 380.292 659.793C383.512 661.981 386.311 663.809 388.555 666.166C396.781 674.807 404.81 683.634 412.936 692.371C430.995 711.788 448.976 731.28 467.163 750.577C483.09 767.476 499.283 784.125 515.306 800.935C526.745 812.936 538.246 824.885 549.36 837.183C551.563 839.621 552.771 843.437 553.301 846.797C554.168 852.302 554.103 857.954 554.432 863.544C554.353 864.726 554.275 865.909 553.247 868.048C552.046 871.504 551.794 874.004 551.542 876.504Z" fill="#DB5350"/>
<path d="M817.503 23.6873C820.288 22.758 823.209 22.1128 825.837 20.8553C852.424 8.1354 879.973 4.8014 908.383 13.1665C921.757 17.1044 934.786 22.239 947.909 27.0017C965.884 33.525 984.048 38.5038 1003.51 36.3014C1015.29 34.9681 1026.04 30.7535 1036.6 25.7102C1043.07 22.6218 1046.24 24.0561 1046.68 31.1374C1049.47 76.6534 1054.08 122.15 1047.8 167.782C1046.61 176.391 1042.81 181.217 1034.99 184.802C1009.89 196.303 984.666 195.878 959.15 187.043C948.152 183.235 937.256 179.101 926.44 174.8C891.441 160.88 856.971 161.301 822.215 177.459C821.315 161.743 821.215 146.768 821.199 130.873C820.6 111.307 819.916 92.6595 819.263 73.0763C818.698 55.9895 818.1 39.8384 817.503 23.6873ZM905.644 86.0706C906.018 93.363 913.452 90.8093 916.966 94.0908C917.466 96.9207 917.573 100.011 918.642 102.721C919.388 104.611 921.323 107.207 922.952 107.381C932.07 108.354 941.262 108.802 949.465 107.81C951.386 102.423 951.712 96.3101 954.391 94.9958C961.563 91.478 962.816 85.3885 964.754 79.0605C970.824 59.2336 962.12 44.0171 941.926 39.4413C916.932 33.7774 898.36 52.6816 904.467 77.5321C905.018 79.774 905.232 82.0985 905.644 86.0706ZM955.672 115.482C950.339 117.363 945.04 119.357 939.653 121.071C937.497 121.757 934.543 122.89 932.979 122.005C922.397 116.018 908.228 116.005 901.955 102.608C899.544 97.4594 893.999 98.6341 891.604 104C890.583 106.288 889.021 108.328 887.814 110.541C885.338 115.08 888.228 120.574 892.999 119.27C903.777 116.323 910.648 123.896 920.822 126.533C907.872 132.843 904.441 133.307 893.714 132.428C891.519 132.248 888.492 133.615 887.087 135.301C886.095 136.492 886.845 139.53 887.455 141.551C888.095 143.667 889.423 145.597 890.587 147.527C891.851 149.622 893.413 153.394 894.595 153.299C897.119 153.097 900.762 151.432 901.664 149.368C904.135 143.72 908.769 141.817 913.853 140.057C918.569 138.425 923.228 136.616 927.979 135.095C930.141 134.403 933.093 133.115 934.615 133.981C945.492 140.174 959.871 140.732 966.285 154.308C968.812 159.656 974.115 158.787 976.839 153.346C978.126 150.777 979.709 148.358 981.03 145.805C983.553 140.928 980.337 135.365 975.05 136.612C969.725 137.868 965.361 137.138 960.739 134.904C956.542 132.877 952.198 131.154 947.031 128.911C960.777 122.396 963.981 121.897 974.839 122.869C976.818 123.046 979.778 122.129 980.773 120.679C981.784 119.205 981.309 116.35 980.779 114.281C980.238 112.171 978.894 110.25 977.802 108.301C976.631 106.209 974.996 102.318 974.172 102.472C971.585 102.954 967.815 104.487 967.157 106.486C965.423 111.756 961.796 113.693 955.672 115.482Z" fill="#443941"/>
<path d="M1088.43 485.303C1083.71 485.172 1079.81 484.079 1075.91 484.074C1004.43 483.973 932.95 483.972 861.469 484.079C857.228 484.085 852.989 485.184 847.054 485.719C835.433 485.196 825.509 484.368 815.581 484.324C778.425 484.16 741.267 484.238 704.11 484.276C701.145 484.28 698.18 484.674 695.215 484.886C693.906 484.701 692.596 484.353 691.287 484.353C643.197 484.36 595.108 484.399 546.106 484.703C535.884 484.799 526.574 484.626 517.264 484.449C505.73 484.23 499.495 479.709 499.454 471.537C499.41 463.047 506.085 458.013 517.902 458.002C564.165 457.96 610.427 458.019 656.69 458.015C697.627 458.012 738.565 457.977 779.502 457.956C782.138 457.955 784.773 457.956 788.555 457.956C788.972 436.921 789.379 416.41 790.644 395.025C803.001 394.168 814.5 394.185 825.999 394.203C826.444 415.089 826.889 435.975 827.351 457.646C830.921 457.805 834.138 458.072 837.354 458.072C924.191 458.071 1011.03 458.042 1097.87 458.024C1101.53 458.023 1105.21 457.844 1108.84 458.163C1116.97 458.877 1122.22 464.319 1122.12 471.577C1122.02 478.442 1117.1 483.45 1109.17 484.1C1102.55 484.641 1095.89 484.62 1088.43 485.303Z" fill="#8A5551"/>
<path d="M554.695 862.734C554.103 857.954 554.168 852.302 553.301 846.797C552.771 843.437 551.563 839.621 549.36 837.184C538.246 824.886 526.745 812.936 515.306 800.935C499.283 784.125 483.09 767.476 467.163 750.577C448.976 731.28 430.995 711.788 412.936 692.371C404.81 683.634 396.781 674.807 388.555 666.166C386.311 663.809 383.512 661.981 380.135 659.121C376.904 654.812 374.904 650.923 372.043 647.831C353.058 627.31 333.962 606.89 314.755 586.576C297.839 568.686 280.731 550.977 263.707 533.188C246.6 514.729 229.506 496.258 212.383 477.815C195.251 459.363 178.09 440.94 160.366 422.252C155.601 417.263 151.39 412.547 147.236 407.781C145.488 405.776 143.581 403.833 142.235 401.571C139.533 397.031 140.214 391.568 143.704 388.814C147.64 385.707 151.857 386.021 155.69 388.886C158.337 390.864 160.679 393.299 162.953 395.722C216.073 452.346 269.155 509.006 322.27 565.635C332.982 577.057 343.782 588.397 354.583 599.736C355.64 600.844 356.989 601.673 359.681 603.801C360.132 599.176 360.647 596.091 360.702 592.998C361.757 533.026 362.739 473.052 363.811 413.079C363.882 409.122 364.257 405.118 365.022 401.24C365.799 397.301 368.479 394.527 372.626 394.504C377.27 394.477 379.846 397.701 380.865 401.89C381.485 404.436 381.462 407.171 381.497 409.824C382.066 453.141 382.53 496.461 383.162 539.777C383.581 568.428 384.363 597.074 384.652 625.725C384.704 630.868 386.528 634.42 389.898 638.008C438.716 689.987 487.436 742.058 536.176 794.111C550.524 809.434 564.88 824.75 579.185 840.114C581.449 842.546 583.725 845.04 585.531 847.809C588.63 852.562 588.07 857.267 584.47 860.444C580.851 863.638 575.972 863.867 571.719 860.294C567.911 857.094 564.673 853.222 561.132 849.698C559.984 848.557 558.672 847.58 556.25 845.519C555.76 851.739 555.359 856.832 554.695 862.734Z" fill="#8C5752"/>
<path d="M46.4988 1114.86C72.5273 1114.01 98.7337 1113.93 124.938 1114.11C129.851 1114.14 134.756 1115.22 140.518 1116.73C144.014 1136.55 146.656 1155.46 148.611 1174.22C144.353 1172.12 140.783 1170.18 137.033 1167.74C135.692 1167.31 134.532 1167.38 132.568 1167.52C129.621 1167.53 127.476 1167.48 124.982 1167.06C123.537 1167.08 122.44 1167.46 120.647 1167.99C106.214 1173.33 97.9 1183.05 97.3768 1197.86C96.7904 1214.46 97.1321 1231.1 97.3571 1247.72C97.4715 1256.17 99.5966 1258.14 108.26 1258.21C121.556 1258.31 134.855 1258.16 148.152 1257.99C158.407 1257.86 160.78 1255.44 161.026 1244.86C161.311 1232.57 161.437 1220.27 162.116 1208.48C168.156 1220.57 173.423 1232.31 179.33 1243.72C189.875 1264.08 203.68 1282.14 219.233 1298.93C222.332 1302.28 224.71 1306.3 226.479 1310.03C192 1309.35 158.459 1308.75 124.925 1307.89C110.352 1307.51 95.7932 1306.61 81.2278 1305.94C78.7967 1293.95 76.1276 1282 73.9758 1269.96C64.7926 1218.56 55.7623 1167.14 46.4988 1114.86Z" fill="#DE6B4E"/>
<path d="M1460.27 1207.53C1460.85 1206.72 1461.37 1205.86 1462 1205.09C1471.44 1193.68 1471.42 1189.46 1461.98 1176.44C1462.56 1175.02 1462.95 1174.47 1463.35 1173.92C1471.17 1171.45 1479.03 1169.09 1486.79 1166.46C1493.97 1164.02 1501.05 1161.29 1509.51 1158.24C1517.71 1155.23 1524.56 1152.67 1531.42 1150.11C1544.46 1145.94 1557.49 1141.77 1571.82 1137.05C1578.57 1134.43 1584.01 1132.37 1589.45 1130.3C1591.15 1129.92 1592.84 1129.54 1595.71 1128.66C1600.37 1126.79 1603.86 1125.41 1607.35 1124.04C1618.95 1120.23 1630.54 1116.42 1643.48 1112.2C1649.68 1109.89 1654.55 1108 1659.41 1106.1C1661.08 1105.72 1662.74 1105.34 1665.57 1104.51C1669.67 1102.94 1672.61 1101.8 1675.55 1100.66C1677.23 1100.25 1678.91 1099.84 1681.81 1098.92C1686.52 1097.07 1690.03 1095.73 1693.54 1094.38C1707.15 1090 1720.8 1085.74 1734.35 1081.22C1755.82 1074.05 1777.22 1066.7 1798.65 1059.42C1799.59 1059.1 1800.5 1058.63 1801.46 1058.39C1808.58 1056.54 1813.19 1058.28 1815.86 1063.77C1818.61 1069.43 1817.06 1075.7 1811.29 1079.48C1807.71 1081.83 1803.62 1083.46 1799.62 1085.09C1746.26 1106.74 1692.88 1128.37 1639.48 1149.93C1613.86 1160.28 1588.18 1170.47 1561.89 1181.28C1540.34 1190 1519.41 1198.11 1498.53 1206.37C1488.4 1210.37 1478.37 1214.63 1467.04 1219.3C1464.29 1219.87 1462.79 1219.93 1461.27 1219.09C1460.92 1214.65 1460.6 1211.09 1460.27 1207.53Z" fill="#875350"/>
<path d="M80.4842 1306.01C95.7933 1306.61 110.353 1307.51 124.925 1307.89C158.459 1308.75 192 1309.35 227.351 1310.04C234.737 1310.64 240.301 1311.67 245.887 1311.81C277.715 1312.63 309.548 1313.3 341.382 1313.87C354.341 1314.11 367.308 1313.84 380.268 1314.04C383.85 1314.1 387.513 1314.69 390.975 1315.64C398.563 1317.71 402.462 1323.21 403.284 1330.79C404.155 1338.81 401.508 1345.38 393.697 1348.65C389.827 1350.27 385.51 1351.75 381.411 1351.71C371.177 1351.61 360.959 1350.24 350.723 1350.06C332.115 1349.74 313.497 1350.09 294.887 1349.81C285.656 1349.68 276.435 1348.79 267.209 1348.25C226.695 1347.43 186.18 1346.58 145.664 1345.83C142.043 1345.76 138.412 1346.27 134.164 1347.04C117.396 1343.06 100.832 1344.06 84.3565 1343.71C80.1295 1343.62 75.7724 1343.15 71.7357 1341.97C63.79 1339.64 60.1728 1333.55 59.6352 1325.61C59.1909 1319.05 64.4272 1311.28 71.1544 1308.46C73.8721 1307.33 76.8701 1306.86 80.4842 1306.01Z" fill="#F9A480"/>
<path d="M117.556 1077.94C112.052 1077.94 106.548 1077.93 100.127 1076.99C99.3376 1060.94 99.2764 1045.84 98.8479 1030.16C86.9905 1030.34 76.5619 1028.78 66.0654 1030.2C66.0654 1046.72 66.0654 1062.24 66.0654 1077.76C60.1229 1077.48 54.1804 1077.2 47.637 1076.3C47.0361 1060.75 47.0361 1045.82 47.0361 1030.36C42.8752 1029.71 39.3099 1029.39 35.8606 1028.57C29.7707 1027.14 26.1854 1022.72 26.3738 1017.39C26.584 1011.44 30.6943 1007.19 37.3843 1006.62C41.3463 1006.28 45.3689 1006.59 49.3616 1006.7C65.6596 1007.17 81.9543 1007.76 98.2541 1008.14C136.524 1009.02 174.795 1009.82 213.067 1010.62C247.01 1011.32 280.955 1011.94 314.897 1012.68C321.544 1012.83 328.196 1013.22 334.822 1013.77C341.735 1014.35 345.93 1018.18 346.449 1023.9C346.923 1029.12 343.706 1032.89 336.947 1034.83C334.726 1035.47 332.423 1035.83 328.88 1036.59C328.88 1051.68 328.88 1066.9 328.911 1083.06C322.937 1083.95 316.933 1083.9 310.108 1082.94C309.287 1066.56 309.287 1051.09 309.287 1034.89C297.381 1034.45 286.732 1033.49 275.773 1034.61C275.773 1051.02 275.773 1066.24 275.773 1081.46C273.392 1082.11 271.004 1083.32 268.632 1083.29C265.032 1083.25 261.443 1082.34 257.148 1080.79C256.683 1064.66 257.197 1049.54 256.875 1033.85C245.025 1033.65 234.628 1032.89 223.661 1034.05C223.661 1050.81 223.661 1066.34 223.661 1081.88C217.798 1081.48 211.935 1081.09 205.472 1079.18C204.805 1062.87 204.739 1048.08 204.669 1032.68C192.868 1032.68 182.471 1032.68 171.71 1032.68C171.71 1048.86 171.71 1064.36 171.71 1079.86C165.386 1079.87 159.062 1079.88 151.964 1078.93C151.19 1062.8 151.19 1047.63 151.19 1032.23C139.769 1030.54 129.101 1029.17 117.556 1031.49C117.556 1047.41 117.556 1062.68 117.556 1077.94Z" fill="#E18266"/>
<path d="M1307.1 1193.98C1300.99 1194.63 1294.87 1195.29 1287.95 1194.98C1287.13 1182.84 1287.13 1171.65 1287.13 1159.16C1282.73 1160.3 1279.68 1161.09 1275.76 1161.87C1266.38 1162 1257.74 1161.35 1249.93 1165.25C1249.93 1177.63 1249.93 1189.52 1249.93 1201.41C1244.21 1202.02 1238.5 1202.64 1232.02 1202.66C1231.13 1190.87 1231.02 1179.67 1230.89 1167.27C1218.17 1168.57 1206.86 1169.73 1195.08 1170.94C1195.08 1184.15 1195.08 1196.07 1195.08 1207.98C1189.15 1208.63 1183.23 1209.28 1176.39 1208.99C1175.4 1196.88 1175.32 1185.72 1175.23 1172.88C1162.06 1175.45 1150.5 1177.7 1138.66 1180.12C1137.96 1180.91 1138.08 1181.45 1138.85 1182.81C1138.88 1193.12 1138.8 1202.5 1138.71 1211.88C1137.37 1215.87 1135.36 1218.68 1130.38 1217.96C1127.52 1217.55 1124.55 1217.9 1120.67 1217.01C1119.5 1204.91 1119.28 1193.72 1119.05 1182.14C1114.53 1182.14 1111.2 1182.39 1107.92 1182.09C1102.65 1181.61 1098.21 1177.39 1097.64 1172.76C1097.08 1168.08 1100.37 1163.2 1105.5 1161.33C1107.04 1160.77 1108.71 1160.45 1110.35 1160.25C1121.9 1158.8 1133.47 1157.51 1145.01 1155.97C1174.69 1152.04 1204.36 1148 1234.86 1143.95C1244.19 1142.93 1252.72 1142.1 1261.19 1140.94C1266.35 1140.23 1271.43 1139 1277.45 1138.18C1283.38 1137.63 1288.43 1136.91 1293.47 1136.18C1294.95 1136.13 1296.44 1136.08 1299.46 1135.93C1307.83 1134.66 1314.67 1133.5 1321.5 1132.34C1330.23 1131.49 1338.96 1130.64 1349.16 1129.69C1352.25 1129.14 1353.86 1128.68 1355.48 1128.22C1357.6 1128.11 1359.72 1128 1363.24 1127.79C1366.26 1127.21 1367.87 1126.73 1369.49 1126.25C1370.37 1126.23 1371.24 1126.2 1373.58 1126.05C1382.54 1124.74 1390.05 1123.56 1397.55 1122.37C1400.29 1122.21 1403.03 1122.05 1407.21 1121.8C1410.28 1121.28 1411.92 1120.84 1413.56 1120.41C1416.95 1120.18 1420.35 1119.95 1425.1 1119.63C1427.48 1119.14 1428.51 1118.76 1429.55 1118.38C1431.79 1118.66 1434.18 1118.54 1436.24 1119.31C1440.46 1120.88 1443.31 1123.8 1443.51 1128.69C1443.71 1133.43 1441.88 1136.91 1437.45 1138.78C1435.97 1139.41 1434.35 1139.72 1431.31 1140.33C1426.08 1141.21 1422.33 1141.94 1417.93 1142.79C1418.23 1147.03 1418.48 1150.51 1418.73 1153.99C1418.53 1156.11 1418.33 1158.23 1418.1 1161.96C1418.08 1168.3 1418.09 1173.03 1418.1 1177.76C1412.55 1178.47 1407 1179.19 1400.53 1179C1399.6 1167.62 1399.6 1157.14 1399.6 1145.09C1386.51 1146.48 1375 1147.71 1363.82 1148.9C1363.82 1162.17 1363.82 1173.99 1363.82 1185.81C1357.25 1187.09 1350.67 1188.37 1343.44 1188.75C1342.89 1181.89 1343.09 1175.92 1343.06 1169.96C1343.03 1164.21 1342.76 1158.46 1342.58 1152.1C1330.14 1153.81 1319.1 1155.34 1307.1 1157C1307.1 1169.65 1307.1 1181.82 1307.1 1193.98Z" fill="#E18064"/>
<path d="M299.188 911.395C303.783 912.868 308.284 914.854 312.991 915.72C328.291 918.534 343.64 921.116 359.022 923.45C374.405 925.785 389.864 927.615 405.263 929.848C419.355 931.891 433.409 934.197 447.485 936.348C464.17 938.897 480.852 941.471 497.555 943.896C503.772 944.799 510.046 945.314 517.076 946.014C525.281 947.535 532.665 949.281 540.134 950.513C556.554 953.221 573.017 955.669 590.26 958.379C589.299 964.435 587.541 970.334 584.711 976.77C519.362 967.632 455.272 956.687 390.421 947.295C390.168 949.893 389.918 951.155 389.943 952.41C390.276 969.374 390.752 986.336 390.987 1003.3C391.406 1033.57 391.686 1063.84 392.024 1094.11C391.061 1093.92 389.859 1094.04 389.171 1093.5C378.928 1085.48 366.783 1084.59 353.616 1083.96C353.126 1045.54 353.555 1007.25 353.939 968.97C354.025 960.375 353.951 951.778 353.951 941.873C342.061 939.98 329.68 938.013 317.302 936.035C305.173 934.098 293.045 932.15 280.484 929.355C284.197 923.772 289.625 919.786 290.196 912.412C293.745 912.019 296.466 911.707 299.188 911.395Z" fill="#895350"/>
<path d="M740.916 371.734C740.609 370.882 740.301 370.029 740.193 368.305C740.574 366.7 740.277 366.247 739.504 366.072C734.74 348.564 729.976 331.056 725.975 312.717C735.899 309.72 745.067 311.859 754.231 311.859C800.033 311.863 845.836 311.916 891.638 311.952C890.424 317.022 889.335 322.126 887.974 327.155C883.888 342.243 879.696 357.301 874.578 373.093C855.082 373.214 836.552 372.1 818.026 372.143C796.174 372.194 774.327 373.364 752.473 373.754C748.634 373.823 744.769 372.444 740.916 371.734Z" fill="#C3664E"/>
<path d="M1043.07 667.26C1035.37 667.144 1028.46 666.533 1021.54 666.004C1014.9 665.497 1011.71 662.849 1011.4 657.46C1011.11 652.286 1015.21 647.1 1020.67 646.203C1023.27 645.776 1025.98 645.99 1028.64 645.989C1064.58 645.981 1100.51 645.992 1136.45 645.973C1139.11 645.971 1141.77 645.772 1145.43 645.483C1149.04 645.65 1151.64 646.292 1154.25 646.302C1181.73 646.403 1209.22 646.41 1236.7 646.413C1237.99 646.414 1239.27 646.136 1241.79 645.844C1242.3 629.723 1242.8 613.647 1244 596.185C1252.51 594.459 1260.44 592.265 1267.99 596.214C1268.57 612.401 1269.15 628.588 1269.78 646.059C1305.73 646.964 1341.65 646.231 1378.49 646.245C1380.76 651.5 1382.1 656.89 1383.43 663.575C1383.4 665.211 1383.38 665.55 1383.36 665.89C1332.1 666.002 1280.83 666.162 1229.57 666.215C1171.31 666.275 1113.05 666.228 1054.8 666.267C1051.15 666.27 1047.51 666.615 1043.07 667.26Z" fill="#8D5A54"/>
<path d="M1194.3 570.059C1189.65 551.978 1185 533.897 1181.21 514.897C1231.91 513.969 1281.76 513.959 1331.61 513.949C1327.24 530.849 1322.87 547.748 1318.52 564.651C1317.86 567.203 1317.27 569.773 1315.64 573.111C1303.41 573.749 1292.18 573.702 1280.94 573.449C1266.13 573.114 1251.31 572.281 1236.5 572.302C1225.32 572.319 1214.15 573.627 1202.98 573.718C1200.09 573.741 1197.19 571.344 1194.3 570.059Z" fill="#C56750"/>
<path d="M817.563 22.8028C818.1 39.8384 818.698 55.9895 818.694 73.6684C817.867 87.3833 817.184 99.5858 817.594 111.751C817.821 118.464 819.881 125.114 821.114 131.792C821.215 146.768 821.315 161.743 821.497 177.704C822.299 215.099 823.021 251.509 822.799 288.852C812.199 289.777 802.541 289.769 792.884 289.761C793.83 245.504 794.672 201.243 795.749 156.989C796.915 109.074 798.289 61.1644 799.599 13.2532C799.835 4.59155 802.875 0.170242 808.514 0.00442537C814.168 -0.161804 817.344 4.35873 817.548 12.9315C817.619 15.926 817.6 18.9227 817.563 22.8028Z" fill="#885553"/>
<path d="M289.37 912.492C289.625 919.786 284.197 923.772 279.734 929.074C260.682 926.87 241.933 924.19 223.215 921.304C168.652 912.895 114.096 904.438 59.5491 895.922C43.4496 893.409 27.3903 890.637 11.3131 887.981C10.3287 887.819 9.32242 887.721 8.37012 887.443C2.55155 885.745 -0.62838 881.567 0.103858 876.654C0.832313 871.767 5.16871 867.984 10.9663 868.389C17.9134 868.873 24.7982 870.251 32.6144 871.294C68.6428 876.96 103.764 882.595 138.894 888.17C144.806 889.108 150.758 889.785 157.899 890.885C159.833 891.287 160.561 891.388 161.288 891.489C162.174 891.582 163.06 891.675 165.409 891.921C183.219 894.718 199.579 897.29 215.911 900.022C240.407 904.12 264.884 908.33 289.37 912.492Z" fill="#8D5A54"/>
<path d="M1245.02 491.849C1245.91 423.951 1246.79 356.052 1247.73 288.154C1247.78 284.528 1247.95 280.806 1248.81 277.314C1249.67 273.82 1252.53 271.134 1256.17 272.145C1258.62 272.824 1261.13 275.294 1262.4 277.622C1263.57 279.76 1263.31 282.779 1263.35 285.415C1264.11 335.006 1264.76 384.598 1265.56 434.188C1265.86 452.822 1266.46 471.452 1266.05 490.942C1258.46 491.816 1251.74 491.833 1245.02 491.849Z" fill="#8D5A54"/>
<path d="M791.982 289.71C802.541 289.769 812.199 289.777 822.824 289.779C844.26 289.725 864.729 289.674 885.198 289.634C887.509 289.63 889.821 289.64 892.13 289.728C897.388 289.928 900.896 292.816 902.429 297.58C903.909 302.175 901.806 306.009 898.198 308.877C896.676 310.086 894.745 310.78 892.319 311.83C845.835 311.916 800.033 311.863 754.231 311.859C745.067 311.859 735.899 309.72 725.876 311.926C724.687 311.909 724.329 311.922 724.041 311.786C716.133 308.065 713.083 304.177 714.277 298.872C715.469 293.572 719.506 289.409 728.599 289.576C749.42 289.959 770.253 289.674 791.982 289.71Z" fill="#E88E70"/>
<path d="M1276.55 1138.01C1271.43 1139 1266.35 1140.23 1261.19 1140.94C1252.72 1142.1 1244.19 1142.93 1234.84 1143.05C1234.39 1112.15 1234.79 1082.09 1235.19 1052.04C1248.02 1050.62 1260.84 1049.2 1274.6 1048.53C1275.65 1050.16 1275.78 1051.05 1275.9 1051.94C1275.85 1058.67 1275.79 1065.4 1275.77 1073.87C1275.96 1079.05 1276.13 1082.5 1276.29 1085.94C1276.18 1086.83 1276.07 1087.72 1275.97 1090.16C1276.33 1098.47 1276.68 1105.23 1277.03 1112C1276.89 1117.46 1276.76 1122.93 1276.65 1129.95C1276.63 1133.67 1276.59 1135.84 1276.55 1138.01Z" fill="#85504D"/>
<path d="M1244.11 491.831C1251.74 491.833 1258.46 491.816 1266.06 491.858C1288.07 491.925 1309.19 491.984 1330.3 491.904C1335.02 491.886 1338.6 493.438 1340.97 497.634C1343.21 501.578 1342.59 505.575 1340.16 508.797C1338.5 510.994 1335.42 512.121 1332.29 513.838C1281.76 513.959 1231.91 513.969 1181.02 514.09C1177.49 512.698 1174.44 511.688 1172.63 509.601C1166.95 503.073 1170.34 493.855 1178.87 492.177C1181.43 491.675 1184.13 491.881 1186.77 491.875C1205.58 491.838 1224.39 491.83 1244.11 491.831Z" fill="#E99477"/>
<path d="M740.312 372.261C744.769 372.444 748.634 373.823 752.473 373.754C774.327 373.364 796.174 372.194 818.026 372.143C836.552 372.1 855.082 373.214 874.56 373.863C881.623 377.557 883.375 380.494 882.316 385.316C881.158 390.59 877.659 393.913 871.708 394.043C857.068 394.363 842.419 394.269 826.886 394.272C814.5 394.185 803.001 394.168 790.596 394.095C775.735 394.092 761.779 394.133 747.823 394.201C742.407 394.228 736.742 394.404 734.217 388.325C731.48 381.732 734.525 376.786 740.312 372.261Z" fill="#E88F72"/>
<path d="M1194.12 570.782C1197.19 571.344 1200.09 573.741 1202.98 573.718C1214.15 573.627 1225.32 572.319 1236.5 572.302C1251.31 572.281 1266.13 573.114 1280.94 573.448C1292.18 573.702 1303.41 573.749 1315.5 573.927C1321.68 576.813 1323.91 581.182 1322.35 587.06C1320.71 593.235 1315.59 594.977 1310.14 595.174C1300.28 595.531 1290.4 595.3 1280.52 595.369C1276.92 595.394 1273.31 595.575 1268.85 595.949C1260.44 592.265 1252.51 594.459 1244.05 595.268C1231.83 595.646 1220.26 595.56 1208.69 595.455C1206.05 595.431 1203.38 595.538 1200.76 595.24C1188.72 593.867 1185.05 586.057 1191.5 575.71C1192.36 574.335 1193.13 572.908 1194.12 570.782Z" fill="#E88E70"/>
<path d="M1479.44 1032.04C1510.43 1032.03 1541.43 1031.67 1572.41 1032.17C1584.93 1032.38 1597.43 1034.38 1609.93 1035.71C1622.1 1037.02 1634.24 1038.64 1646.41 1039.92C1670.22 1042.43 1693.38 1047.98 1716.34 1054.55C1723.29 1056.54 1730.32 1058.26 1738.96 1060.54C1738.36 1057.23 1738.51 1054.99 1737.56 1053.41C1734.52 1048.38 1731.07 1043.59 1728 1037.98C1737.3 1048.1 1746.38 1058.94 1755.46 1069.79C1755.12 1070.13 1754.77 1070.48 1754.42 1070.83C1738.66 1065.72 1722.9 1060.62 1705.93 1055.08C1703.59 1054.53 1702.47 1054.41 1701.35 1054.29C1671.94 1045.93 1641.75 1042.1 1610.07 1038.75C1607.58 1038.53 1606.47 1038.55 1605.35 1038.56C1584.06 1037.33 1562.77 1036.1 1539.78 1034.69C1521.18 1034.82 1504.26 1035.14 1487.35 1035.46C1485.84 1035.41 1484.33 1035.37 1481.58 1035.31C1480 1035.15 1479.66 1035.02 1479.29 1034.41C1479.34 1033.3 1479.4 1032.67 1479.44 1032.04Z" fill="#DB5350"/>
<path d="M1431.37 666.163C1426.09 660.147 1420.81 654.131 1415.37 647.488C1429.82 646.743 1444.43 646.529 1459.04 646.558C1464.13 646.568 1468.06 648.878 1469.51 654.103C1471.06 659.647 1467.83 664.939 1462.03 666.03C1459.12 666.576 1456.07 666.346 1451.36 666.302C1443.54 666.146 1437.46 666.154 1431.37 666.163Z" fill="#8D5A54"/>
<path d="M1431.44 666.837C1437.46 666.154 1443.54 666.146 1450.5 666.354C1449.58 675.142 1455.03 682.233 1456.25 690.203C1456.79 693.706 1458.13 697.085 1458.63 701.298C1458.15 702.075 1457.27 702.039 1457.27 702.039C1457.27 702.039 1457.35 702 1457.15 701.524C1456.61 700.434 1456.09 700.039 1455.41 699.862C1455.41 699.862 1455.35 699.935 1455.22 699.425C1454.58 698.469 1454.07 698.023 1453.57 697.576C1446.21 687.555 1438.86 677.533 1431.44 666.837Z" fill="#FDBA91"/>
<path d="M1457.29 702.764C1457.27 702.039 1458.15 702.075 1458.59 702.086C1477.08 724.558 1495.14 747.013 1513.16 769.491C1514.81 771.549 1516.28 773.752 1517.98 776.544C1515.29 775.155 1511.86 773.599 1509.71 770.987C1493.03 750.645 1476.57 730.125 1460.15 709.573C1458.79 707.873 1458.24 705.533 1457.29 702.764Z" fill="#DB5350"/>
<path d="M1635.93 922.626C1632.82 920.69 1629.02 918.551 1626.43 915.41C1613.03 899.166 1599.85 882.747 1586.82 866.208C1582.63 860.879 1579.13 854.996 1575.34 848.632C1584.32 858.548 1593.43 869.082 1602.22 879.878C1613.54 893.795 1624.61 907.923 1635.93 922.626Z" fill="#DB5350"/>
<path d="M1711.19 1015.3C1708.43 1013.94 1704.93 1012.41 1702.73 1009.8C1690.99 995.849 1679.45 981.732 1668.14 967.442C1664.72 963.125 1662.23 958.071 1659.35 952.618C1666.45 960.152 1673.66 968.309 1680.56 976.722C1690.84 989.263 1700.9 1001.98 1711.19 1015.3Z" fill="#DB5350"/>
<path d="M1567.2 837.294C1565.13 836.7 1562.31 835.934 1560.8 834.097C1549.14 819.921 1537.71 805.557 1526.3 791.175C1525.56 790.244 1525.61 788.69 1525.3 786.694C1536.37 799.183 1547.46 812.382 1558.48 825.639C1561.45 829.211 1564.21 832.959 1567.2 837.294Z" fill="#DB5350"/>
<path d="M1379.89 604.687C1377.76 604.459 1375.48 603.565 1372.32 602.323C1372.32 606.908 1372.32 610.984 1371.78 615.51C1370.66 614.792 1369.92 613.677 1369.56 612.449C1366.59 602.412 1363.7 592.353 1362.14 581.395C1368.01 588.937 1373.88 596.479 1379.89 604.687Z" fill="#DB5350"/>
<path d="M1409.23 641.267C1406.92 640.46 1403.74 639.526 1402.15 637.403C1395.7 628.791 1389.74 619.814 1383.66 610.244C1387.26 613.322 1391.02 616.939 1394.25 620.973C1399.39 627.366 1404.17 634.039 1409.23 641.267Z" fill="#DB5350"/>
<path d="M1727.97 1036.55C1719.17 1033.45 1715.07 1025.57 1711.31 1016.68C1716.82 1022.6 1722.33 1029.24 1727.97 1036.55Z" fill="#DB5350"/>
<path d="M1478.56 1032C1479.4 1032.67 1479.34 1033.3 1478.49 1034.51C1475.6 1035.4 1473.47 1035.7 1471.35 1036C1470.44 1035.83 1469.53 1035.66 1467.44 1034.96C1464.61 1034.22 1462.95 1034.01 1461.29 1033.8C1466.75 1033.19 1472.21 1032.58 1478.56 1032Z" fill="#DB5350"/>
<path d="M1652.01 942.524C1647.26 942.403 1644.85 939.201 1644 933.967C1646.77 936.134 1649.32 939.008 1652.01 942.524Z" fill="#DB5350"/>
<path d="M1643.98 932.567C1639.35 932.33 1636.72 929.335 1635.93 924.008C1638.7 926.173 1641.27 929.048 1643.98 932.567Z" fill="#DB5350"/>
<path d="M1575.26 847.285C1570.35 847.309 1567.83 844.299 1567.31 838.676C1569.93 840.844 1572.53 843.742 1575.26 847.285Z" fill="#DB5350"/>
<path d="M1659.28 951.273C1654.96 951.498 1652.44 949.072 1652.03 943.953C1654.56 945.703 1656.86 948.167 1659.28 951.273Z" fill="#DB5350"/>
<path d="M1525.2 785.331C1520.98 785.427 1518.4 783.069 1518 777.968C1520.51 779.734 1522.79 782.211 1525.2 785.331Z" fill="#DB5350"/>
<path d="M1460.64 1033.84C1462.95 1034.01 1464.61 1034.22 1466.76 1034.82C1466.38 1035.48 1465.52 1035.73 1464.01 1036.17C1461.89 1036.4 1460.42 1036.44 1458.22 1036.65C1457.5 1036.81 1457.44 1036.23 1457.41 1035.51C1457.37 1034.8 1457.39 1033.94 1457.39 1033.94C1458.26 1033.92 1459.12 1033.9 1460.64 1033.84Z" fill="#DB5350"/>
<path d="M552.004 875.918C551.794 874.004 552.046 871.504 552.857 868.516C553.101 870.463 552.784 872.898 552.004 875.918Z" fill="#8C5752"/>
<path d="M1412.18 644.984C1411.41 644.802 1410.43 644.037 1409.4 642.593C1410.22 642.742 1411.09 643.571 1412.18 644.984Z" fill="#DB5350"/>
<path d="M1383.65 609.104C1383.16 609.266 1382.54 608.903 1381.86 607.979C1382.38 607.804 1382.95 608.191 1383.65 609.104Z" fill="#DB5350"/>
<path d="M1381.76 606.971C1381.25 607.147 1380.62 606.813 1379.97 605.903C1380.51 605.704 1381.07 606.082 1381.76 606.971Z" fill="#DB5350"/>
<path d="M739.45 366.541C740.277 366.247 740.574 366.7 740.138 367.626C739.882 367.818 739.395 367.01 739.45 366.541Z" fill="#E88F72"/>
<path d="M1456.45 1033.93C1457.39 1033.94 1457.37 1034.8 1457.36 1035.22C1447.17 1036.57 1436.99 1037.49 1425.82 1038.5C1425.82 1030.45 1425.61 1023.6 1425.87 1016.76C1426.31 1004.81 1427.46 992.879 1427.57 980.931C1427.75 960.629 1428.19 940.271 1426.97 920.028C1425.48 895.195 1422.78 870.414 1419.94 845.686C1413.41 788.829 1400.52 733.165 1387.5 677.545C1386.67 674.009 1385.34 670.59 1383.8 666.503C1383.38 665.55 1383.4 665.211 1383.49 664.366C1384.98 665.447 1387.11 666.809 1387.69 668.657C1391.06 679.414 1394.45 690.194 1397.1 701.142C1400.52 715.277 1403.55 729.524 1406.22 743.821C1410.83 768.518 1415.35 793.24 1419.33 818.046C1422.99 840.882 1425.88 863.84 1429.1 886.746C1429.19 887.404 1429.26 888.07 1429.27 888.734C1429.96 926.309 1430.86 963.881 1431.17 1001.46C1431.25 1011.62 1429.55 1021.8 1428.58 1032.93C1438.42 1034.77 1447.03 1033.55 1456.45 1033.93Z" fill="#DB5350"/>
<path d="M267.333 1348.92C276.435 1348.79 285.656 1349.68 294.887 1349.81C313.496 1350.09 332.115 1349.74 350.723 1350.06C360.959 1350.24 371.177 1351.61 381.411 1351.71C385.51 1351.75 389.827 1350.27 393.697 1348.65C401.507 1345.38 404.155 1338.81 403.284 1330.79C402.462 1323.21 398.563 1317.71 390.974 1315.64C387.513 1314.69 383.85 1314.1 380.268 1314.04C367.308 1313.84 354.341 1314.11 341.382 1313.87C309.548 1313.3 277.715 1312.63 245.887 1311.81C240.3 1311.67 234.737 1310.64 228.292 1310.01C224.71 1306.3 222.332 1302.28 219.233 1298.93C203.68 1282.14 189.875 1264.08 179.33 1243.72C173.423 1232.31 168.156 1220.57 161.979 1207.62C162.044 1193.85 157.4 1183.46 149.299 1174.37C146.656 1155.46 144.014 1136.55 141.373 1116.77C142.374 1115.9 143.374 1115.89 144.373 1115.9C185.613 1116.6 226.925 1116.05 268.068 1118.42C296.368 1120.04 324.588 1119.09 352.83 1119.93C365.655 1120.31 366.979 1121.52 372.058 1132.87C379.378 1149.22 386.366 1165.86 395.334 1181.31C408.686 1204.3 429.715 1217.99 455.485 1223.76C466.077 1226.14 477.081 1226.74 487.922 1227.92C495.82 1228.79 503.777 1229.11 511.67 1230.01C516.923 1230.61 521.127 1233.36 523.411 1238.25C525.515 1242.75 527.351 1247.4 529.039 1252.08C537.147 1274.55 544.501 1297.33 553.424 1319.47C560.599 1337.28 573.786 1348.75 594.03 1350.1C600.958 1350.56 607.869 1351.79 614.789 1351.8C704.415 1351.91 794.042 1352.02 883.668 1351.77C909.583 1351.7 935.498 1350.62 961.407 1349.81C974.999 1349.39 988.63 1349.07 1002.15 1347.77C1033.03 1344.8 1060.79 1334.34 1083.77 1312.63C1095.33 1301.71 1104.26 1289.11 1110.97 1274.8C1113.23 1269.98 1115.8 1265.3 1117.97 1260.43C1120.4 1254.96 1124.55 1252.66 1130.37 1251.93C1149.4 1249.56 1168.37 1246.77 1187.39 1244.31C1204.78 1242.05 1222.21 1240.13 1239.6 1237.85C1256.32 1235.65 1272.99 1233.09 1289.71 1230.83C1307.41 1228.44 1325.14 1226.28 1342.84 1223.9C1354.31 1222.36 1365.74 1220.54 1377.21 1218.98C1390.32 1217.2 1403.46 1215.66 1416.56 1213.87C1430.65 1211.93 1444.71 1209.82 1459.53 1207.66C1460.6 1211.09 1460.92 1214.65 1461.26 1219.59C1461.28 1221.32 1461.3 1221.65 1461.31 1221.99C1461.66 1239.93 1460.04 1257.73 1457.47 1275.46C1455.48 1289.19 1453.63 1302.94 1451.5 1316.65C1448.71 1334.57 1439.14 1349.58 1429.58 1364.28C1415.22 1386.35 1397.35 1405.56 1378.54 1423.99C1365.43 1436.83 1350.82 1447.65 1336.24 1458.63C1317.35 1472.86 1297.1 1484.99 1275.97 1495.26C1250.93 1507.43 1225.39 1518.6 1198.38 1526.29C1173.17 1533.48 1147.9 1540.15 1122.08 1544.6C1106.13 1547.35 1090.1 1549.62 1074.08 1551.96C1060.35 1553.97 1046.62 1556.01 1032.84 1557.58C1022.65 1558.74 1012.37 1559.13 1002.13 1559.94C986.962 1561.15 971.799 1562.44 956.633 1563.68C954.976 1563.81 953.31 1563.85 951.648 1563.92C887.447 1566.66 823.207 1566.2 758.98 1565.75C738.479 1565.61 717.994 1563.33 697.501 1562.04C686.257 1561.33 674.991 1560.88 663.776 1559.87C650.933 1558.7 638.086 1557.37 625.331 1555.5C610.955 1553.39 596.613 1550.93 582.377 1548.03C562.922 1544.07 543.408 1540.19 524.229 1535.11C489.446 1525.89 456.032 1512.81 424.107 1496.18C396.676 1481.89 370.435 1465.54 346.577 1445.84C320.866 1424.61 298.571 1400.12 281.094 1371.5C276.612 1364.16 272.005 1356.9 267.333 1348.92ZM1340.02 1311.94C1334.13 1311.94 1328.25 1311.94 1322.69 1311.94C1320.73 1305.8 1320.91 1302 1325.42 1298.31C1328.88 1295.48 1331.68 1291.28 1333.5 1287.14C1336.73 1279.82 1336.99 1272.05 1331.6 1265.47C1325.98 1258.62 1319.09 1252.9 1309.51 1254.37C1298.35 1256.08 1290.37 1262.75 1287.91 1273.84C1285.64 1284.07 1289.16 1292.78 1298.5 1298.63C1303.45 1301.73 1304.63 1306 1301.81 1311.53C1298.9 1311.68 1296.28 1311.89 1293.65 1311.92C1288 1311.98 1282.33 1311.96 1276.67 1311.96C1272.44 1311.96 1269.41 1313.46 1269.56 1318.25C1269.69 1322.48 1272.52 1323.86 1276.3 1323.89C1280.29 1323.92 1284.29 1323.84 1288.28 1323.95C1293.11 1324.09 1297.93 1324.38 1303.33 1324.64C1303.33 1346.14 1303.62 1366.43 1303.21 1386.71C1302.99 1396.99 1293.42 1402 1284.12 1397.3C1281.47 1395.96 1278.99 1394.26 1276.52 1392.58C1267.07 1386.18 1266.28 1383.47 1270.81 1372.86C1264.7 1366.21 1258.95 1358.97 1248.56 1355.64C1245.31 1366.07 1242.49 1375.86 1244.38 1386.87C1247.76 1386.87 1250.27 1386.87 1251.58 1386.87C1258.04 1393.73 1263.7 1400.14 1269.79 1406.1C1280.03 1416.12 1293.84 1419.9 1306.14 1426.33C1309.71 1428.19 1312.98 1428.19 1316.56 1426.35C1326.29 1421.35 1336.33 1416.9 1345.85 1411.53C1353.97 1406.94 1361.57 1401.14 1365.79 1392.57C1368.27 1387.55 1371.32 1385.67 1377.55 1387.48C1376.08 1376.37 1380.42 1365.67 1373.09 1354.93C1364.21 1360.62 1358.5 1368.31 1351.79 1374.65C1356.61 1383.58 1356.79 1383.78 1349.86 1390.27C1346.52 1393.39 1342.65 1396.23 1338.53 1398.15C1328.59 1402.81 1321.39 1398.18 1321.34 1387.45C1321.27 1369.14 1321.3 1350.83 1321.37 1332.51C1321.38 1329.97 1321.92 1327.43 1322.26 1324.45C1325.79 1324.25 1328.72 1324 1331.66 1323.95C1336.65 1323.87 1341.65 1323.94 1346.64 1323.89C1350.48 1323.84 1353.12 1322.25 1353.17 1318.04C1353.23 1313.89 1350.76 1312.12 1346.86 1311.98C1345.19 1311.93 1343.53 1311.95 1340.02 1311.94ZM197.376 1203.3C197.404 1216.92 197.403 1230.55 197.47 1244.17C197.527 1255.85 201.041 1259.4 212.961 1259.58C222.596 1259.72 232.239 1259.77 241.871 1259.55C245.814 1259.46 249.768 1258.69 253.662 1257.95C258.556 1257.02 261.168 1253.84 261.182 1248.87C261.231 1231.59 262.589 1214.16 260.829 1197.06C258.268 1172.18 234.883 1159.73 212.282 1171.9C201.105 1177.92 197.1 1188.92 197.376 1203.3ZM340.35 1257.99C343.011 1257.98 345.673 1258.01 348.334 1257.97C358.212 1257.82 360.925 1255.47 361.085 1245.76C361.33 1230.8 361.666 1215.8 361.065 1200.86C360.525 1187.43 354.94 1175.37 342.19 1170.3C316.827 1160.22 297.353 1177.15 297.244 1198.97C297.165 1214.61 297.2 1230.24 297.328 1245.88C297.401 1254.94 299.614 1257.71 308.713 1259.03C313.588 1259.74 318.647 1259.41 323.61 1259.22C328.566 1259.02 333.506 1258.42 340.35 1257.99ZM829.681 1466.83C845.028 1437.69 822.701 1404.97 792.423 1407.86C771.144 1409.9 755.764 1426.71 755.795 1446.67C755.829 1469.03 772.348 1485.38 793.511 1486.23C809.066 1486.86 820.284 1480.3 829.681 1466.83ZM933.406 1414.78C920.914 1422.21 915.938 1434.47 916.344 1447.67C917.138 1473.46 937.119 1486.77 957.881 1486.43C980.874 1486.06 1000.27 1460.88 994.15 1437.46C987.697 1412.77 958.604 1398.97 933.406 1414.78ZM460.425 1484.34C490.963 1493.53 516.47 1472.69 513.358 1441.08C511.515 1422.36 493.4 1407.56 472.708 1407.88C452.871 1408.19 436.051 1424.87 435.299 1444.65C434.601 1462.99 442.668 1475.83 460.425 1484.34ZM1080.91 1464.79C1081.97 1466.48 1082.96 1468.21 1084.1 1469.83C1092.61 1481.91 1104.51 1487.8 1119.02 1486.75C1135.89 1485.53 1147.62 1475.81 1153.17 1460.28C1159.22 1443.35 1154.89 1428.44 1141.01 1416.34C1127.96 1404.96 1105.54 1404.69 1092.33 1415.86C1076.88 1428.93 1073.66 1444.84 1080.91 1464.79ZM657.748 1479.64C673.221 1468.27 676.17 1452.38 672.32 1435.1C669.176 1420.98 654.656 1409.68 640.818 1408.02C620.262 1405.56 606.085 1417.26 600.392 1427.96C591.443 1444.79 594.441 1462.68 608.522 1476.16C621.129 1488.24 640.397 1489.93 657.748 1479.64Z" fill="#EB7E5F"/>
<path d="M1462 1221.97C1461.3 1221.65 1461.28 1221.32 1461.28 1220.48C1462.79 1219.93 1464.29 1219.87 1466.54 1219.8C1465.75 1220.51 1464.22 1221.23 1462 1221.97Z" fill="#C56750"/>
<path d="M778.487 1030.16C761.926 1033.19 745.365 1036.22 728.803 1039.25C727.502 1039.48 726.204 1039.73 724.093 1039.93C729.358 1022.69 735.516 1005.52 741.489 988.289C752.13 957.594 760.966 926.346 766.658 894.385C770.068 875.232 770.706 855.602 773.506 836.32C776.926 812.776 775.029 789.185 775.12 765.631C775.166 753.808 773.032 741.967 771.724 730.151C770.415 718.331 769.518 706.419 767.35 694.749C763.667 674.924 760.041 655.007 754.71 635.589C748.581 613.258 741.539 591.077 733.236 569.468C722.527 541.601 710.745 514.101 695.719 488.163C695.405 487.62 695.446 486.872 695.268 485.553C698.18 484.674 701.144 484.28 704.11 484.276C741.267 484.238 778.424 484.16 815.581 484.324C825.508 484.368 835.433 485.196 846.21 485.864C853.466 499.924 859.935 513.757 866.264 527.653C886.415 571.901 902.948 617.422 913.938 664.847C919.475 688.743 923.23 712.932 925.663 737.361C928.036 761.178 929.844 785.011 929.095 808.941C927.996 844.088 924.106 878.935 916.554 913.321C909.501 945.434 900.75 977.027 887.755 1007.33C886.6 1010.02 886.248 1013.06 885.536 1016.67C872.698 1018.25 859.844 1019.07 846.997 1019.97C844.055 1020.18 841.132 1020.65 836.68 1021.37C819.692 1023.53 804.212 1025.2 788.77 1027.18C785.273 1027.63 781.911 1029.14 778.487 1030.16Z" fill="#FDB990"/>
<path d="M1453.69 698.089C1454.07 698.023 1454.58 698.469 1455.25 699.397C1454.89 699.453 1454.35 699.028 1453.69 698.089Z" fill="#DB5350"/>
<path d="M1455.58 700.323C1456.09 700.039 1456.61 700.434 1457.11 701.52C1456.62 701.767 1456.11 701.364 1455.58 700.323Z" fill="#DB5350"/>
<path d="M778.573 1031.04C781.911 1029.14 785.273 1027.63 788.771 1027.18C804.212 1025.2 819.692 1023.53 836.023 1021.91C838.03 1090.38 839.184 1158.69 840.308 1227C840.785 1255.99 841.196 1284.98 841.703 1314.91C838.296 1316.44 834.828 1317.51 831.347 1317.55C812.543 1317.77 793.735 1317.74 773.964 1317.8C774.885 1222.5 776.772 1127.2 778.573 1031.04Z" fill="#87524F"/>
<path d="M1250.68 1201.36C1249.93 1189.52 1249.93 1177.63 1249.93 1165.25C1257.74 1161.35 1266.38 1162 1275.83 1162.81C1276.97 1175.1 1277.17 1186.42 1277.38 1197.74C1268.73 1198.93 1260.08 1200.12 1250.68 1201.36Z" fill="#85504D"/>
<path d="M290.196 912.412C264.885 908.33 240.407 904.12 215.911 900.022C199.579 897.29 183.22 894.718 166.074 891.848C168.374 886.995 170.856 881.767 174.681 877.852C188.934 863.263 201.257 847.115 211.246 829.528C221.046 812.274 229.769 794.27 237.347 775.927C246.217 754.458 252.593 732.006 256.513 709.064C259.461 691.808 261.189 674.341 263.384 656.959C266.675 630.903 268.119 604.72 267.198 578.491C266.688 563.968 264.794 549.493 263.615 534.092C280.731 550.977 297.839 568.686 314.755 586.576C333.962 606.89 353.058 627.31 372.043 647.831C374.904 650.923 376.904 654.812 379.459 659.005C380.112 666.611 380.651 673.543 381.096 680.481C383.785 722.422 379.544 763.51 365.738 803.382C352.482 841.666 332.589 875.916 303.843 904.762C302.218 906.393 300.904 908.336 299.316 910.764C296.467 911.707 293.745 912.019 290.196 912.412Z" fill="#FDBA91"/>
<path d="M160.897 891.093C160.561 891.388 159.833 891.287 158.716 890.77C159.053 890.468 159.78 890.583 160.897 891.093Z" fill="#FDBA91"/>
<path d="M1075.35 609.935C1075.32 605.812 1078.52 604.581 1081.39 602.811C1083.54 601.487 1086.31 599.767 1086.95 597.661C1088.84 591.41 1093.05 591.466 1097.97 592.44C1099.25 592.693 1100.49 593.153 1101.87 593.551C1103.01 592.704 1104.14 592.004 1105.11 591.124C1107.39 589.045 1109.95 586.6 1112.89 589.132C1115.91 591.73 1119.02 595.697 1116.27 599.56C1109.52 609.032 1116.6 615.66 1120.2 623.029C1121.59 625.881 1124.17 626.208 1127.04 625.044C1129.9 623.882 1132.82 622.86 1135.72 621.777C1136.24 622.377 1136.76 622.976 1137.28 623.576C1135.92 626.438 1134.79 629.433 1133.18 632.137C1127.36 641.877 1123.33 641.835 1117.28 632.167C1116.94 631.623 1116.38 631.218 1115.44 630.253C1106.68 638.058 1095.83 638.069 1084.86 637.976C1066.87 637.824 1048.89 637.816 1030.9 637.987C1021.89 638.073 1014.53 641.021 1008.83 648.982C1005.24 654 1004.11 659.121 1005.93 663.855C1008.86 671.51 1008.89 678.423 1005.48 685.679C1004.82 687.083 1004.98 688.876 1004.78 690.45C1002.21 691.605 999.931 692.627 997.442 693.746C998.028 695.208 998.175 696.604 998.751 696.812C1000.22 697.341 1001.92 697.656 1003.44 697.449C1004.65 697.285 1005.69 695.77 1006.9 695.634C1015.54 694.66 1021.55 690.82 1026.05 682.821C1029.15 677.3 1035.22 679.219 1040.62 687.501C1035.98 690.466 1031.93 692.69 1033.86 698.202C1035.54 702.982 1039.59 704.232 1044.35 703.964C1047.34 703.796 1050.35 703.934 1053.35 703.935C1061.04 712.544 1064.26 723.186 1067.57 733.928C1068.97 738.485 1072.29 742.454 1074.21 747.313C1069.57 747.726 1065.8 747.821 1064.04 752.762C1060.58 762.465 1065.19 774.32 1074.91 779.687C1077.02 777.797 1079.19 775.866 1081.35 773.935C1082.6 775.371 1084.86 776.747 1084.95 778.252C1085.9 794.126 1092.18 808.536 1096.77 823.423C1097.61 826.162 1097.19 829.29 1096.67 832.987C1093.2 831.184 1090.4 828.633 1087.82 826.282C1081.92 828.606 1084.55 833.55 1083.02 836.761C1081.34 840.253 1078.32 843.098 1074.51 847.982C1084.14 847.188 1091.74 846.562 1099.35 845.935C1099.94 858.143 1100.74 870.346 1101 882.561C1101.1 887.107 1099.94 891.68 1098.59 897.003C1088.12 894.927 1079.99 897.398 1073.31 906.213C1069.89 900.518 1064.64 896.405 1070.07 889.817C1070.81 888.921 1071.06 887.315 1070.96 886.088C1070.31 878.572 1069.64 871.051 1068.61 863.582C1068.46 862.455 1066.41 861.588 1065.24 860.601C1064.18 861.988 1062.04 864.426 1062.21 864.608C1067.05 869.583 1061.07 872.163 1059.82 875.473C1060.85 878.733 1061.79 881.737 1063.43 886.995C1059.72 885.015 1056.77 884.42 1056.37 883.074C1053.41 872.994 1042.22 875.977 1036.68 870.233C1029.44 873.579 1023.96 870.863 1019.22 865.274C1018.65 864.605 1017.46 864.229 1016.53 864.149C1007.29 863.364 997.433 860.313 988.95 862.517C976.874 865.654 964.397 858.716 953 865.529C952.334 865.927 951.031 865.512 950.118 865.2C946.911 864.102 943.766 862.754 941.23 866.481C939.052 869.682 939.224 872.558 941.757 875.548C944.178 878.406 943.531 881.687 940.666 883.346C931.198 888.829 931.983 898.979 929.585 907.435C927.641 914.294 927.659 921.709 926.748 929.368C923.185 929.583 920.268 929.759 917.351 929.935C918.914 921.56 920.044 913.075 922.13 904.832C926.615 887.107 926.809 868.856 929.416 850.914C933.262 824.435 930.336 797.834 931.453 771.318C931.612 767.527 933.307 763.823 933.971 760.023C934.343 757.895 934.931 755.071 933.924 753.555C927.902 744.486 929.233 734.384 929.46 724.518C929.619 717.606 930.713 710.714 931.429 703.818C931.531 702.84 931.534 701.545 932.132 700.971C940.695 692.769 941.303 680.759 946.573 670.955C954.106 668.519 961.88 666.635 969.053 663.416C972.566 661.84 974.966 657.783 978.816 653.892C980.149 654.421 982.505 655.291 984.808 656.283C990.269 658.637 992.788 657.268 993.26 651.222C993.565 647.306 993.317 643.347 993.317 637.391C989.839 639.66 987.811 640.891 985.883 642.262C982.944 644.354 979.766 644.585 978.564 641.035C977.987 639.329 980.266 634.721 981.303 634.705C990.404 634.563 993.441 625.015 1001.13 622.533C1004.96 621.297 1007.67 617.175 1007.46 612.094C1007.36 609.695 1008.43 607.247 1009.16 603.982C1017.31 607.198 1026.04 603.635 1032.22 610.911C1033.33 612.209 1036.62 611.621 1038.9 611.946C1040.86 612.225 1043.31 611.919 1044.66 612.984C1051.33 618.227 1057.88 615.455 1064.49 613.251C1067.62 612.212 1070.7 611.06 1074.65 610.515C1076.1 611.716 1076.71 612.36 1077.32 613.005C1077.68 612.586 1078.05 612.167 1078.41 611.748C1077.39 611.144 1076.37 610.539 1075.35 609.935ZM1022.15 843.715C1023.3 840.386 1024.45 837.057 1025.98 832.644C1022.42 831.901 1019.72 830.47 1017.63 831.084C1013.23 832.374 1009.92 831.691 1006.78 828.477C1003.28 824.89 998.845 825.58 994.606 826.544C991.395 827.275 988.306 828.543 985.302 829.526C982.4 827.708 979.728 826.035 976.652 824.109C974.443 829.613 975.655 833.744 980.103 835.554C983.668 837.004 986.427 841.911 991.701 838.519C999.115 833.751 999.032 834.389 1006.25 839.543C1010.49 842.567 1014.3 848.329 1022.15 843.715ZM952.052 789.605C950.677 786.044 949.303 782.483 947.889 778.821C943.87 776.89 940.952 778.78 938.711 781.976C933.833 788.931 942.025 794.009 941.693 800.495C941.61 802.11 944.72 803.903 946.408 805.568C946.542 805.7 947.031 805.473 947.352 805.412C949.382 802.516 951.781 799.797 953.287 796.651C954.047 795.063 953.191 792.702 952.052 789.605ZM994.865 726.138C989.935 726.33 984.909 726.027 980.125 726.965C978.276 727.327 975.967 730.375 975.709 732.431C975.444 734.539 976.865 737.964 978.591 738.909C980.364 739.88 983.769 739.219 985.802 738.089C990.19 735.648 994.156 732.45 998.73 729.258C998.01 728.477 997.176 727.571 994.865 726.138ZM972.234 758.063C974.496 757.258 976.758 756.452 979.983 755.303C977.832 751.5 976.316 748.821 974.559 745.715C970.438 748.08 966.828 749.659 963.889 752.059C962.557 753.147 961.996 755.929 962.215 757.811C962.306 758.599 965.296 759.348 967.033 759.544C968.201 759.676 969.483 758.807 972.234 758.063ZM955.769 722.262C957.186 724.956 959.077 726.741 961.715 723.884C962.41 723.131 962.282 720.497 961.521 719.736C959.371 717.583 956.932 717.096 955.769 722.262ZM1084.05 856.725C1080.32 857.822 1081.11 860.339 1082.52 862.6C1082.9 863.22 1084.71 862.957 1085.86 863.1C1085.68 861.174 1085.49 859.248 1084.05 856.725ZM1015.6 820.778C1016.69 821.453 1018.29 822.963 1018.79 822.661C1021.3 821.134 1021.97 819.004 1017.82 814.595C1017.03 816.493 1016.42 817.97 1015.6 820.778ZM1078.86 870.39C1077.87 871.692 1076.87 872.994 1075.69 874.545C1079.44 876.419 1081.47 875.401 1082.46 872.521C1082.62 872.055 1080.99 870.976 1078.86 870.39ZM968.846 695.845C967.368 696.095 965.891 696.345 964.414 696.595C964.568 697.428 964.721 698.26 964.874 699.093C966.265 698.441 967.656 697.79 968.846 695.845ZM1052.3 845.307C1053.39 845.984 1054.49 846.662 1055.58 847.339C1055.85 846.791 1056.12 846.242 1056.39 845.694C1055.32 845.284 1054.25 844.874 1052.3 845.307ZM1043.59 802.487C1042.5 802.871 1041.41 803.255 1040.33 803.64C1040.58 804.197 1040.84 804.754 1041.09 805.311C1042.21 804.659 1043.33 804.008 1043.59 802.487Z" fill="#DB5350"/>
<path d="M916.785 930.458C920.268 929.759 923.185 929.583 926.748 929.368C927.659 921.709 927.64 914.294 929.585 907.435C931.983 898.979 931.198 888.829 940.666 883.346C943.531 881.687 944.178 878.406 941.757 875.548C939.223 872.558 939.052 869.682 941.23 866.481C943.766 862.754 946.911 864.102 950.118 865.2C951.03 865.512 952.334 865.927 953 865.529C964.397 858.716 976.874 865.654 988.95 862.517C997.433 860.313 1007.29 863.364 1016.53 864.149C1017.46 864.229 1018.65 864.605 1019.22 865.274C1023.96 870.863 1029.44 873.579 1036.68 870.233C1042.22 875.977 1053.41 872.994 1056.37 883.074C1056.77 884.42 1059.72 885.015 1063.43 886.995C1061.79 881.737 1060.85 878.734 1059.82 875.473C1061.07 872.163 1067.05 869.583 1062.21 864.608C1062.04 864.426 1064.18 861.988 1065.24 860.601C1066.41 861.588 1068.46 862.455 1068.61 863.582C1069.64 871.051 1070.31 878.572 1070.96 886.088C1071.06 887.315 1070.81 888.922 1070.07 889.817C1064.64 896.405 1069.89 900.518 1073.31 906.213C1079.99 897.398 1088.12 894.927 1098.59 897.85C1100.01 901.47 1101.69 905.172 1101.14 908.509C1099.43 918.881 1096.75 929.089 1094.72 939.416C1093.8 944.136 1093.64 949.003 1092.95 953.775C1092.43 957.354 1091.91 960.981 1090.86 964.427C1087.41 975.82 1084.02 987.25 1080.02 998.458C1076.48 1008.39 1072.19 1018.07 1068.16 1027.83C1066.92 1030.83 1065.46 1033.74 1063.75 1037.46C1061.59 1036.5 1059.34 1035.39 1057.01 1034.5C1053.35 1033.11 1048.23 1029.64 1046.17 1030.94C1035.38 1037.72 1027.33 1028.54 1018.22 1026.94C1004.63 1024.56 991.417 1020.05 978.018 1016.54C976.123 1016.05 974.082 1016.06 972.103 1015.95C960.213 1015.25 948.279 1014.98 936.444 1013.76C928.983 1012.99 921.624 1010.98 914.301 1009.19C909.283 1007.97 906.503 1004.2 905.599 999.279C904.645 994.092 904.086 988.832 904.119 982.781C907.959 983.038 910.969 984.538 914.136 985.039C916.044 985.342 918.915 984.734 920.104 983.412C923.319 979.84 923.558 969.771 920.377 966.175C917.382 962.787 917.565 959.089 917.273 955.149C916.945 950.721 916.017 946.338 915.351 941.935C915.64 938.284 915.929 934.633 916.785 930.458Z" fill="#DD5350"/>
<path d="M914.69 942.297C916.017 946.338 916.945 950.721 917.273 955.149C917.565 959.089 917.382 962.787 920.377 966.175C923.558 969.771 923.319 979.84 920.104 983.412C918.915 984.734 916.044 985.342 914.136 985.039C910.969 984.538 907.959 983.038 904.117 981.947C903.076 980.689 902.13 978.945 902.629 978.271C909.171 969.429 908.714 958.59 911.397 948.661C911.96 946.575 913.136 944.655 914.69 942.297Z" fill="#DB5350"/>
<path d="M1081.33 773.115C1079.19 775.866 1077.02 777.797 1074.91 779.687C1065.19 774.32 1060.58 762.465 1064.04 752.762C1065.8 747.821 1069.57 747.726 1074.52 747.935C1080.74 755.221 1078.51 764.374 1081.33 773.115Z" fill="#DD5350"/>
<path d="M1099.35 845.152C1091.74 846.562 1084.14 847.188 1074.51 847.982C1078.32 843.098 1081.34 840.253 1083.02 836.761C1084.55 833.55 1081.92 828.606 1087.82 826.281C1090.4 828.633 1093.2 831.184 1096.67 833.835C1098.02 837.413 1098.68 840.891 1099.35 845.152Z" fill="#DD5350"/>
<path d="M1053.28 703.236C1050.35 703.934 1047.34 703.796 1044.35 703.964C1039.59 704.232 1035.54 702.982 1033.86 698.202C1031.93 692.69 1035.97 690.466 1040.7 688.222C1045.3 692.802 1049.25 697.669 1053.28 703.236Z" fill="#DD5350"/>
<path d="M918.772 1017.14C917.12 1017.69 915.027 1017.82 912.187 1017.69C913.737 1017.19 916.034 1016.96 918.772 1017.14Z" fill="#FDB990"/>
<path d="M905.623 85.2276C905.232 82.0985 905.018 79.7739 904.467 77.532C898.36 52.6816 916.932 33.7774 941.926 39.4413C962.12 44.017 970.824 59.2336 964.754 79.0605C962.816 85.3885 961.563 91.478 954.391 94.9958C951.712 96.3101 951.386 102.423 949.465 107.81C941.262 108.802 932.07 108.354 922.952 107.38C921.323 107.207 919.388 104.611 918.642 102.721C917.573 100.011 917.466 96.9206 916.966 94.0908C913.452 90.8093 906.018 93.3629 905.623 85.2276ZM913.541 78.8633C916.226 79.8869 919.186 82.1375 921.525 81.6138C924.254 81.0026 927.266 78.421 928.663 75.8755C930.59 72.3658 929.231 68.189 925.631 66.4388C923.016 65.167 918.978 64.6164 916.491 65.7522C911.66 67.9582 910.477 72.4803 913.541 78.8633ZM953.126 66.5516C951.883 66.1543 950.642 65.4201 949.399 65.4168C943.311 65.4002 939.73 68.9849 940.33 74.2638C940.918 79.4311 945.646 82.9155 950.915 82.063C957.606 80.9802 958.84 75.8219 953.126 66.5516ZM930.711 88.4339C930.725 89.8435 930.484 92.4124 930.793 92.4806C933.475 93.0716 936.256 93.213 940.61 93.6485C938.581 88.8361 937.174 85.4995 935.254 80.9436C933.318 83.9507 932.302 85.5281 930.711 88.4339Z" fill="#F8F7F7"/>
<path d="M956.391 115.174C961.796 113.693 965.423 111.755 967.157 106.486C967.815 104.487 971.585 102.954 974.172 102.472C974.996 102.318 976.631 106.209 977.802 108.301C978.894 110.25 980.238 112.171 980.779 114.281C981.309 116.35 981.784 119.205 980.773 120.679C979.778 122.128 976.818 123.046 974.839 122.869C963.981 121.897 960.777 122.396 947.031 128.911C952.198 131.154 956.542 132.877 960.739 134.904C965.361 137.138 969.725 137.868 975.05 136.612C980.337 135.365 983.553 140.928 981.03 145.805C979.709 148.358 978.126 150.777 976.839 153.346C974.115 158.787 968.812 159.656 966.285 154.308C959.871 140.732 945.492 140.173 934.615 133.981C933.093 133.115 930.141 134.403 927.979 135.095C923.228 136.616 918.569 138.425 913.853 140.057C908.769 141.817 904.135 143.72 901.664 149.368C900.762 151.432 897.119 153.097 894.595 153.299C893.413 153.394 891.851 149.622 890.587 147.527C889.423 145.597 888.095 143.667 887.455 141.551C886.845 139.53 886.095 136.492 887.087 135.301C888.492 133.615 891.519 132.247 893.714 132.428C904.441 133.307 907.872 132.842 920.822 126.533C910.648 123.896 903.777 116.323 892.999 119.27C888.228 120.574 885.338 115.08 887.814 110.541C889.021 108.328 890.583 106.288 891.604 104C893.999 98.634 899.544 97.4593 901.955 102.608C908.228 116.005 922.397 116.018 932.979 122.005C934.543 122.89 937.497 121.757 939.653 121.071C945.04 119.357 950.339 117.363 956.391 115.174Z" fill="#F1F0F1"/>
<path d="M821.199 130.873C819.881 125.114 817.821 118.464 817.594 111.751C817.184 99.5858 817.867 87.3833 818.662 74.604C819.916 92.6594 820.6 111.307 821.199 130.873Z" fill="#8D5A54"/>
<path d="M148.611 1174.22C157.4 1183.46 162.045 1193.85 161.494 1207.12C161.437 1220.27 161.311 1232.57 161.026 1244.86C160.78 1255.44 158.407 1257.86 148.152 1257.99C134.855 1258.16 121.556 1258.31 108.26 1258.21C99.5966 1258.14 97.4715 1256.17 97.3572 1247.72C97.1322 1231.1 96.7905 1214.46 97.3769 1197.86C97.9 1183.05 106.214 1173.33 121.321 1168.04C123.571 1167.77 124.451 1167.6 125.331 1167.42C127.476 1167.48 129.621 1167.53 133.19 1167.73C135.481 1167.99 136.347 1168.12 137.213 1168.24C140.783 1170.18 144.353 1172.12 148.611 1174.22ZM108.632 1195.15C108.232 1210.73 107.779 1226.31 107.47 1241.89C107.401 1245.36 109.343 1247.7 112.917 1247.74C124.757 1247.87 136.599 1247.79 149.339 1247.79C149.339 1229.45 149.635 1212.55 149.195 1195.66C149.015 1188.77 141.593 1181.1 135.675 1179.97C122.859 1177.53 115.73 1181.18 108.632 1195.15Z" fill="#F1C9B8"/>
<path d="M124.982 1167.06C124.451 1167.6 123.571 1167.77 122.018 1167.89C122.44 1167.46 123.537 1167.08 124.982 1167.06Z" fill="#E18266"/>
<path d="M137.033 1167.74C136.347 1168.12 135.481 1167.99 133.993 1167.66C134.532 1167.38 135.692 1167.31 137.033 1167.74Z" fill="#E18266"/>
<path d="M1138.66 1180.12C1138.94 1179.96 1139.08 1180.95 1138.91 1181.41C1138.08 1181.45 1137.96 1180.91 1138.66 1180.12Z" fill="#F7A482"/>
<path d="M1031.34 1111.92C1031.15 1111.98 1030.96 1112.05 1031.07 1112.03C1031.37 1111.95 1031.35 1111.94 1031.34 1111.92Z" fill="#FDD984"/>
<path d="M1340.94 1311.94C1343.53 1311.95 1345.19 1311.93 1346.86 1311.99C1350.76 1312.12 1353.23 1313.89 1353.17 1318.04C1353.12 1322.25 1350.48 1323.84 1346.64 1323.89C1341.65 1323.94 1336.65 1323.87 1331.66 1323.95C1328.72 1324 1325.79 1324.25 1322.26 1324.45C1321.92 1327.43 1321.38 1329.97 1321.37 1332.51C1321.3 1350.83 1321.27 1369.14 1321.34 1387.45C1321.39 1398.18 1328.59 1402.81 1338.53 1398.15C1342.65 1396.23 1346.52 1393.39 1349.86 1390.27C1356.79 1383.78 1356.61 1383.58 1351.79 1374.65C1358.5 1368.31 1364.21 1360.62 1373.09 1354.94C1380.42 1365.67 1376.08 1376.37 1377.55 1387.48C1371.32 1385.67 1368.27 1387.55 1365.79 1392.57C1361.57 1401.14 1353.97 1406.94 1345.85 1411.53C1336.33 1416.9 1326.29 1421.35 1316.56 1426.35C1312.98 1428.19 1309.71 1428.19 1306.14 1426.33C1293.84 1419.9 1280.03 1416.12 1269.79 1406.1C1263.7 1400.14 1258.04 1393.73 1251.58 1386.87C1250.27 1386.87 1247.76 1386.87 1244.38 1386.87C1242.49 1375.86 1245.31 1366.07 1248.56 1355.64C1258.95 1358.97 1264.7 1366.21 1270.81 1372.86C1266.28 1383.47 1267.07 1386.18 1276.52 1392.58C1278.99 1394.26 1281.47 1395.96 1284.12 1397.3C1293.42 1402 1302.99 1396.99 1303.21 1386.71C1303.62 1366.43 1303.33 1346.14 1303.33 1324.64C1297.93 1324.38 1293.11 1324.09 1288.28 1323.95C1284.29 1323.84 1280.29 1323.92 1276.3 1323.89C1272.52 1323.86 1269.69 1322.48 1269.56 1318.25C1269.41 1313.46 1272.44 1311.96 1276.67 1311.96C1282.33 1311.96 1288 1311.98 1293.65 1311.92C1296.28 1311.89 1298.9 1311.68 1301.81 1311.53C1304.63 1306 1303.45 1301.73 1298.5 1298.63C1289.16 1292.78 1285.64 1284.07 1287.91 1273.84C1290.37 1262.75 1298.35 1256.08 1309.51 1254.37C1319.09 1252.9 1325.98 1258.62 1331.6 1265.47C1336.99 1272.05 1336.73 1279.82 1333.5 1287.14C1331.68 1291.28 1328.88 1295.48 1325.42 1298.31C1320.91 1302 1320.73 1305.8 1322.69 1311.94C1328.25 1311.94 1334.13 1311.94 1340.94 1311.94ZM1310.55 1265.94C1308.18 1266.92 1305.39 1267.4 1303.52 1268.97C1297.79 1273.76 1298.09 1281.79 1303.81 1287.27C1308.39 1291.66 1315.98 1290.93 1320.58 1285.67C1327.19 1278.09 1323.41 1269.22 1310.55 1265.94Z" fill="#DE694B"/>
<path d="M197.382 1202.36C197.1 1188.92 201.105 1177.92 212.282 1171.9C234.883 1159.73 258.269 1172.18 260.829 1197.06C262.589 1214.16 261.231 1231.59 261.182 1248.87C261.168 1253.84 258.556 1257.02 253.662 1257.95C249.768 1258.69 245.814 1259.46 241.871 1259.55C232.239 1259.77 222.596 1259.72 212.961 1259.58C201.041 1259.4 197.527 1255.85 197.47 1244.17C197.403 1230.55 197.404 1216.92 197.382 1202.36ZM245.588 1187.13C238.977 1179.1 230.289 1177.81 221.292 1181.16C211.647 1184.76 208.735 1192.86 209.098 1202.84C209.533 1214.78 209.148 1226.75 209.246 1238.7C209.27 1241.53 209.802 1244.36 210.092 1247.11C223.549 1247.11 235.981 1247.11 248.281 1247.11C248.786 1245.43 249.304 1244.51 249.31 1243.57C249.41 1228.3 249.606 1213.03 249.361 1197.76C249.311 1194.63 247.556 1191.52 245.588 1187.13Z" fill="#F2CCBB"/>
<path d="M339.401 1257.99C333.506 1258.42 328.566 1259.02 323.61 1259.22C318.647 1259.41 313.588 1259.74 308.713 1259.03C299.614 1257.71 297.402 1254.94 297.328 1245.88C297.2 1230.24 297.166 1214.61 297.244 1198.97C297.353 1177.15 316.827 1160.22 342.19 1170.3C354.94 1175.37 360.525 1187.43 361.065 1200.86C361.666 1215.8 361.33 1230.8 361.085 1245.76C360.925 1255.47 358.212 1257.82 348.334 1257.97C345.673 1258.01 343.011 1257.98 339.401 1257.99ZM349.442 1226.88C349.44 1218.23 348.935 1209.55 349.561 1200.94C350.359 1189.98 342.795 1182.79 336.569 1180.62C327.674 1177.52 318.394 1179.72 312.758 1187.8C309.743 1192.12 307.938 1198.03 307.617 1203.34C306.878 1215.61 307.331 1227.95 307.419 1240.26C307.434 1242.47 308.016 1244.68 308.384 1247.22C322.036 1247.22 335.135 1247.22 349.449 1247.22C349.449 1240.65 349.449 1234.75 349.442 1226.88Z" fill="#F1C9B8"/>
<path d="M829.344 1467.5C820.284 1480.3 809.066 1486.86 793.511 1486.23C772.348 1485.38 755.829 1469.03 755.795 1446.67C755.764 1426.71 771.144 1409.9 792.423 1407.86C822.7 1404.97 845.028 1437.69 829.344 1467.5ZM821.054 1456C821.204 1455.02 821.297 1454.02 821.513 1453.04C824.147 1441.15 820.214 1430.15 809.816 1423.75C800.259 1417.86 790.131 1418.19 780.591 1424.34C772.5 1429.55 767.154 1437.38 767.928 1446.76C768.735 1456.57 771.298 1466.8 782.132 1471.4C796.235 1477.38 811.293 1475.45 821.054 1456Z" fill="#F1C9B8"/>
<path d="M934.01 1414.34C958.604 1398.97 987.697 1412.77 994.15 1437.46C1000.27 1460.88 980.875 1486.06 957.881 1486.43C937.12 1486.77 917.138 1473.46 916.344 1447.67C915.938 1434.47 920.914 1422.21 934.01 1414.34ZM935.222 1429C929.368 1434.22 929.18 1441.09 929.198 1448.26C929.246 1467.12 947.298 1479.83 967.551 1472.09C977.365 1468.34 985.448 1451.52 983.024 1442.24C980.43 1432.32 968.888 1418.31 955.966 1419.65C948.25 1420.45 941.821 1422.71 935.222 1429Z" fill="#F1C9B8"/>
<path d="M459.716 1484.05C442.669 1475.83 434.601 1462.99 435.299 1444.65C436.051 1424.87 452.871 1408.19 472.708 1407.88C493.4 1407.56 511.515 1422.36 513.358 1441.08C516.47 1472.69 490.964 1493.53 459.716 1484.05ZM450.106 1434.34C440.471 1453.97 455.073 1476.21 475.463 1474.38C493.774 1472.74 506.604 1455.13 500.082 1437.62C496.398 1427.73 489.393 1421.28 478.971 1420.18C467.47 1418.97 457.117 1421.9 450.106 1434.34Z" fill="#F2CCBB"/>
<path d="M1080.55 1464.09C1073.66 1444.84 1076.88 1428.93 1092.33 1415.86C1105.54 1404.69 1127.96 1404.96 1141.01 1416.34C1154.89 1428.44 1159.22 1443.35 1153.17 1460.28C1147.62 1475.81 1135.89 1485.53 1119.02 1486.75C1104.51 1487.8 1092.61 1481.91 1084.1 1469.83C1082.96 1468.21 1081.97 1466.48 1080.55 1464.09ZM1090.1 1455.13C1091.08 1457.23 1092.08 1459.33 1093.06 1461.43C1100.87 1478.19 1127.91 1477.89 1137.09 1465.35C1143.61 1456.45 1145.73 1444.32 1140.61 1434.54C1134.89 1423.59 1125.19 1419.59 1113.39 1420C1102.89 1420.37 1093.85 1427.09 1090.69 1437.86C1089.24 1442.77 1089.91 1448.31 1090.1 1455.13Z" fill="#F2CCBB"/>
<path d="M657.094 1480.01C640.397 1489.93 621.13 1488.24 608.523 1476.16C594.442 1462.68 591.443 1444.79 600.393 1427.96C606.085 1417.26 620.262 1405.56 640.818 1408.02C654.656 1409.68 669.176 1420.98 672.32 1435.1C676.17 1452.38 673.221 1468.27 657.094 1480.01ZM656.53 1430.15C655.828 1429.44 655.102 1428.75 654.427 1428.01C645.149 1417.87 627.351 1417.45 618.085 1425.31C608.913 1433.09 605.059 1448.26 610.779 1460.53C614.971 1469.52 625.32 1476.52 637.843 1474.76C657.451 1472.01 668.48 1451.31 656.53 1430.15Z" fill="#F1C9B8"/>
<path d="M1021.61 844.247C1014.3 848.329 1010.49 842.567 1006.25 839.543C999.032 834.389 999.115 833.751 991.701 838.519C986.427 841.911 983.668 837.004 980.103 835.554C975.655 833.744 974.443 829.613 976.652 824.109C979.728 826.035 982.4 827.708 985.302 829.526C988.306 828.543 991.395 827.275 994.606 826.544C998.845 825.58 1003.28 824.89 1006.78 828.477C1009.92 831.691 1013.23 832.374 1017.63 831.084C1019.72 830.47 1022.42 831.901 1025.98 832.644C1024.45 837.057 1023.3 840.386 1021.61 844.247Z" fill="#DD5350"/>
<path d="M952.559 790.147C953.191 792.702 954.047 795.063 953.287 796.651C951.781 799.797 949.382 802.516 947.353 805.412C947.031 805.473 946.542 805.7 946.408 805.568C944.72 803.903 941.61 802.11 941.693 800.495C942.025 794.009 933.833 788.931 938.711 781.976C940.952 778.78 943.87 776.89 947.889 778.821C949.303 782.483 950.677 786.044 952.559 790.147Z" fill="#DD5350"/>
<path d="M995.603 726.402C997.176 727.571 998.01 728.477 998.73 729.258C994.155 732.45 990.189 735.648 985.802 738.089C983.769 739.219 980.364 739.88 978.591 738.909C976.865 737.964 975.444 734.539 975.709 732.431C975.967 730.375 978.275 727.327 980.125 726.965C984.909 726.027 989.935 726.33 995.603 726.402Z" fill="#DD5350"/>
<path d="M971.474 758.225C969.483 758.807 968.201 759.676 967.033 759.544C965.296 759.349 962.307 758.599 962.215 757.811C961.996 755.929 962.557 753.148 963.889 752.06C966.829 749.659 970.438 748.08 974.559 745.715C976.317 748.822 977.832 751.5 979.983 755.303C976.758 756.452 974.496 757.258 971.474 758.225Z" fill="#DD5350"/>
<path d="M955.696 721.564C956.932 717.096 959.371 717.583 961.522 719.736C962.282 720.497 962.41 723.131 961.716 723.884C959.077 726.741 957.186 724.956 955.696 721.564Z" fill="#D95450"/>
<path d="M1084.68 857.024C1085.49 859.248 1085.68 861.174 1085.86 863.1C1084.71 862.957 1082.9 863.22 1082.52 862.6C1081.11 860.339 1080.32 857.821 1084.68 857.024Z" fill="#DD5350"/>
<path d="M1015.7 820.112C1016.42 817.97 1017.03 816.493 1017.82 814.595C1021.97 819.004 1021.3 821.134 1018.79 822.661C1018.29 822.963 1016.69 821.453 1015.7 820.112Z" fill="#DD5350"/>
<path d="M1079.53 870.285C1080.99 870.976 1082.62 872.055 1082.46 872.521C1081.47 875.401 1079.44 876.419 1075.69 874.545C1076.87 872.994 1077.87 871.692 1079.53 870.285Z" fill="#DD5350"/>
<path d="M968.946 696.492C967.656 697.79 966.265 698.441 964.875 699.093C964.721 698.26 964.568 697.428 964.414 696.595C965.891 696.345 967.368 696.095 968.946 696.492Z" fill="#DD5350"/>
<path d="M1052.74 844.885C1054.25 844.874 1055.32 845.284 1056.39 845.694C1056.12 846.242 1055.85 846.791 1055.58 847.339C1054.49 846.662 1053.39 845.984 1052.74 844.885Z" fill="#DD5350"/>
<path d="M1044.02 802.922C1043.33 804.008 1042.21 804.659 1041.09 805.311C1040.84 804.754 1040.58 804.197 1040.33 803.64C1041.41 803.255 1042.5 802.871 1044.02 802.922Z" fill="#DD5350"/>
<path d="M1075.42 610.503C1076.37 610.539 1077.39 611.144 1078.41 611.748C1078.05 612.167 1077.68 612.586 1077.32 613.005C1076.71 612.36 1076.1 611.716 1075.42 610.503Z" fill="#D95450"/>
<path d="M913.15 78.202C910.477 72.4802 911.66 67.9582 916.49 65.7521C918.977 64.6164 923.015 65.1669 925.631 66.4387C929.231 68.189 930.59 72.3658 928.663 75.8754C927.266 78.4209 924.254 81.0025 921.525 81.6137C919.186 82.1375 916.226 79.8869 913.15 78.202Z" fill="#443941"/>
<path d="M953.751 67.0693C958.84 75.8219 957.606 80.9801 950.915 82.0629C945.646 82.9154 940.918 79.431 940.33 74.2637C939.73 68.9848 943.311 65.4001 949.398 65.4167C950.642 65.4201 951.883 66.1542 953.751 67.0693Z" fill="#443941"/>
<path d="M930.999 87.7697C932.302 85.5281 933.318 83.9507 935.254 80.9436C937.174 85.4995 938.581 88.8362 940.61 93.6485C936.256 93.213 933.475 93.0716 930.793 92.4807C930.484 92.4124 930.725 89.8435 930.999 87.7697Z" fill="#885553"/>
<path d="M108.866 1194.37C115.73 1181.18 122.859 1177.53 135.675 1179.97C141.593 1181.1 149.015 1188.77 149.195 1195.66C149.635 1212.55 149.339 1229.45 149.339 1247.79C136.599 1247.79 124.757 1247.87 112.917 1247.74C109.343 1247.7 107.401 1245.36 107.47 1241.89C107.779 1226.31 108.232 1210.73 108.866 1194.37Z" fill="#9BBDCC"/>
<path d="M1311.35 1265.94C1323.41 1269.22 1327.19 1278.09 1320.58 1285.67C1315.99 1290.93 1308.39 1291.66 1303.81 1287.27C1298.09 1281.79 1297.79 1273.76 1303.52 1268.97C1305.39 1267.4 1308.18 1266.92 1311.35 1265.94Z" fill="#EB7E5F"/>
<path d="M246.088 1187.76C247.556 1191.52 249.311 1194.63 249.361 1197.76C249.606 1213.03 249.41 1228.3 249.31 1243.57C249.304 1244.51 248.786 1245.43 248.281 1247.11C235.981 1247.11 223.549 1247.11 210.092 1247.11C209.802 1244.36 209.27 1241.53 209.246 1238.7C209.148 1226.75 209.533 1214.78 209.098 1202.84C208.735 1192.86 211.647 1184.76 221.292 1181.16C230.289 1177.81 238.977 1179.1 246.088 1187.76Z" fill="#9BBDCC"/>
<path d="M349.445 1227.87C349.449 1234.75 349.449 1240.65 349.449 1247.22C335.135 1247.22 322.036 1247.22 308.384 1247.22C308.016 1244.68 307.434 1242.47 307.418 1240.26C307.331 1227.95 306.878 1215.61 307.617 1203.34C307.938 1198.03 309.743 1192.12 312.758 1187.8C318.394 1179.72 327.674 1177.52 336.569 1180.62C342.795 1182.79 350.358 1189.98 349.561 1200.94C348.935 1209.55 349.439 1218.23 349.445 1227.87Z" fill="#9BBDCC"/>
<path d="M820.784 1456.72C811.293 1475.45 796.235 1477.38 782.132 1471.4C771.299 1466.8 768.736 1456.57 767.928 1446.76C767.155 1437.38 772.5 1429.55 780.591 1424.34C790.131 1418.19 800.259 1417.86 809.817 1423.75C820.215 1430.15 824.147 1441.15 821.513 1453.04C821.297 1454.02 821.205 1455.02 820.784 1456.72Z" fill="#9FBFCD"/>
<path d="M935.757 1428.47C941.821 1422.71 948.25 1420.45 955.966 1419.65C968.888 1418.31 980.43 1432.32 983.024 1442.24C985.448 1451.52 977.365 1468.34 967.551 1472.09C947.298 1479.83 929.246 1467.12 929.198 1448.26C929.18 1441.09 929.368 1434.22 935.757 1428.47Z" fill="#9FBFCD"/>
<path d="M450.472 1433.65C457.117 1421.9 467.469 1418.97 478.97 1420.18C489.393 1421.28 496.398 1427.73 500.082 1437.62C506.604 1455.13 493.774 1472.74 475.463 1474.38C455.072 1476.21 440.471 1453.97 450.472 1433.65Z" fill="#9BBDCC"/>
<path d="M1089.86 1454.34C1089.91 1448.31 1089.24 1442.77 1090.69 1437.86C1093.85 1427.09 1102.89 1420.37 1113.39 1420C1125.19 1419.59 1134.89 1423.59 1140.61 1434.54C1145.73 1444.32 1143.61 1456.45 1137.09 1465.35C1127.91 1477.89 1100.87 1478.19 1093.06 1461.43C1092.08 1459.33 1091.08 1457.23 1089.86 1454.34Z" fill="#9BBDCC"/>
<path d="M657.045 1430.72C668.48 1451.31 657.451 1472.01 637.843 1474.76C625.32 1476.52 614.971 1469.52 610.779 1460.53C605.059 1448.26 608.913 1433.09 618.085 1425.31C627.351 1417.45 645.149 1417.87 654.428 1428.01C655.102 1428.75 655.828 1429.44 657.045 1430.72Z" fill="#9BBDCC"/>
<path d="M911.351 944.435L889.351 1012.44H918.351L1018.35 1015.94L1075.85 957.935L1102.85 913.435L1105.35 869.435L1100.35 830.435L1083.35 763.435L1065.85 716.435L1041.35 678.935L1010.85 669.935L998.851 653.935L1022.85 639.435L1089.35 622.935L1095.35 589.935L1041.35 600.935L959.851 653.935L932.351 763.435L936.351 826.435L918.351 913.435L911.351 944.435Z" fill="#DD5350"/>
</svg>
